<?xml version="1.0" encoding="utf-8"?>
<!-- Generator: Adobe Illustrator 21.0.0, SVG Export Plug-In . SVG Version: 6.00 Build 0)  -->
<svg version="1.1" xmlns="http://www.w3.org/2000/svg" xmlns:xlink="http://www.w3.org/1999/xlink" x="0px" y="0px"
	 viewBox="0 0 1024 768" style="enable-background:new 0 0 1024 768;" xml:space="preserve">
<style type="text/css">
	.st0{fill:none;stroke:#00CCC6;stroke-width:0.25;stroke-miterlimit:10;}
	.st1{fill:#575756;}
	.st2{fill:none;}
	.st3{fill:#878787;}
	.st4{fill:#3C3C3B;}
	.st5{opacity:0.88;}
	.st6{fill:none;stroke:#D65DB1;stroke-miterlimit:10;}
	.st7{fill:none;stroke:#845EC2;stroke-miterlimit:10;}
	.st8{fill:none;stroke:#FF9671;stroke-miterlimit:10;}
	.st9{fill:none;stroke:#FAEDED;stroke-miterlimit:10;}
	.st10{opacity:0.88;fill:none;stroke:#FF9671;stroke-miterlimit:10;}
	.st11{opacity:0.88;fill:none;stroke:#D65DB1;stroke-miterlimit:10;}
	.st12{opacity:0.88;fill:none;stroke:#845EC2;stroke-miterlimit:10;}
	.st13{opacity:0.2;}
	.st14{opacity:0.2;fill:none;stroke:#FF9671;stroke-miterlimit:10;}
	.st15{opacity:0.2;fill:none;stroke:#D65DB1;stroke-miterlimit:10;}
	.st16{opacity:0.2;fill:none;stroke:#845EC2;stroke-miterlimit:10;}
	.st17{opacity:0.2;fill:none;stroke:#FAEDED;stroke-miterlimit:10;}
</style>
<g id="Calque_5">
	<polygon class="st0" points="929.1,168 1062.1,125.7 1165.2,219.7 1135.4,356 1002.4,398.3 899.2,304.3 	"/>
	<polygon class="st0" points="537.8,370 521.4,360.5 521.4,341.5 537.8,332 554.3,341.5 554.3,360.5 	"/>
	<polygon class="st0" points="677.4,430 637.4,452.1 598.3,428.6 599.1,383 639.1,360.8 678.2,384.4 	"/>
	<polygon class="st0" points="283.6,390.6 349.5,378.1 393.3,428.9 371.2,492.2 305.3,504.7 261.5,453.9 	"/>
	<polygon class="st0" points="0,304 -79.7,326.1 -138.7,268.1 -118,188 -38.3,165.9 20.7,223.9 	"/>
	<polygon class="st0" points="73.5,76.6 -36.1,86.3 -99.3,-3.7 -52.9,-103.4 56.6,-113.2 119.8,-23.2 	"/>
	<polygon class="st0" points="726.3,152 726.2,172.3 708.5,182.3 691,172 691.1,151.7 708.8,141.7 	"/>
	<circle class="st0" cx="152.3" cy="398.3" r="71.9"/>
	<circle class="st0" cx="356.8" cy="69.7" r="15.7"/>
	<circle class="st0" cx="950.6" cy="62.8" r="8.8"/>
	<circle class="st0" cx="901" cy="337.9" r="11.6"/>
	<circle class="st0" cx="1010.5" cy="427.2" r="43"/>
	<circle class="st0" cx="40.2" cy="326.7" r="9.4"/>
	<circle class="st0" cx="192.5" cy="226" r="12"/>
	<circle class="st0" cx="441.8" cy="404" r="5.7"/>
	<polygon class="st0" points="96.3,140 112.2,156.4 105.9,178.4 83.7,184 67.8,167.6 74.1,145.6 	"/>
	<polygon class="st0" points="828.5,62.8 813.8,70.7 799.6,61.9 800.2,45.2 814.9,37.3 829.1,46.1 	"/>
	<polygon class="st0" points="153.3,27.6 194.8,1.6 238.1,24.6 239.9,73.6 198.3,99.6 155,76.6 	"/>
	<polygon class="st0" points="414.7,262 414.7,262 414.7,262 414.7,262 414.7,262 414.7,262 	"/>
	<polygon class="st0" points="848.2,493.1 740.3,529.1 655.2,453.7 678,342.3 785.8,306.3 870.9,381.7 	"/>
	<polygon class="st0" points="114.1,513.4 18,572.3 -81,518.5 -84,405.8 12.1,346.9 111.2,400.7 	"/>
	<polygon class="st0" points="499.6,413.7 557.9,426.8 575.7,483.8 535.3,527.8 477,514.7 459.2,457.7 	"/>
	<polygon class="st0" points="398.5,504.8 389.5,499.6 389.5,489.2 398.5,483.9 407.6,489.2 407.6,499.6 	"/>
	<polygon class="st0" points="412.6,470.7 390.6,482.9 369.1,470 369.5,444.9 391.5,432.7 413,445.6 	"/>
	<polygon class="st0" points="196,449.1 232.2,442.2 256.3,470.1 244.2,505 207.9,511.9 183.8,483.9 	"/>
	<polygon class="st0" points="102.8,468.5 58.9,480.7 26.5,448.8 37.9,404.7 81.7,392.6 114.2,424.5 	"/>
	<polygon class="st0" points="123.5,310.1 63.2,315.5 28.5,266 54,211.1 114.2,205.8 149,255.3 	"/>
	<polygon class="st0" points="502.2,384.9 502.1,396.1 492.4,401.6 482.8,395.9 482.9,384.8 492.6,379.3 	"/>
	<circle class="st0" cx="123.8" cy="453.3" r="39.6"/>
	<circle class="st0" cx="299" cy="339.7" r="8.6"/>
	<circle class="st0" cx="625.6" cy="335.9" r="4.8"/>
	<circle class="st0" cx="598.3" cy="487.2" r="6.4"/>
	<circle class="st0" cx="595.8" cy="469.2" r="23.7"/>
	<circle class="st0" cx="124.8" cy="481" r="5.1"/>
	<circle class="st0" cx="208.7" cy="425.6" r="6.6"/>
	<circle class="st0" cx="283" cy="456.4" r="3.1"/>
	<polygon class="st0" points="155.7,378.3 164.5,387.4 161,399.5 148.8,402.5 140.1,393.5 143.5,381.4 	"/>
	<polygon class="st0" points="558.4,335.9 550.3,340.2 542.5,335.4 542.8,326.2 550.9,321.9 558.7,326.7 	"/>
	<polygon class="st0" points="167.4,283.2 190.2,268.9 214,281.5 215,308.5 192.1,322.8 168.3,310.1 	"/>
	<polygon class="st0" points="330.8,445.4 330.8,445.4 330.8,445.4 330.8,445.4 330.8,445.4 330.8,445.4 	"/>
	<polygon class="st0" points="506.5,505.5 447.2,525.3 400.4,483.8 412.9,422.5 472.2,402.7 519,444.2 	"/>
	<polygon class="st0" points="102.8,516.6 49.9,549 -4.6,519.4 -6.2,457.4 46.7,425.1 101.2,454.6 	"/>
	<polygon class="st0" points="1116.6,383.3 1148.8,390.5 1158.7,422 1136.3,446.3 1104.1,439.1 1094.3,407.6 	"/>
	<polygon class="st0" points="1145,335.2 1185.4,322.3 1216.7,350.9 1207.7,392.3 1167.3,405.2 1135.9,376.6 	"/>
	<polygon class="st0" points="1026.1,396.6 1021.1,393.7 1021.1,387.9 1026.1,385 1031.1,387.9 1031.1,393.7 	"/>
	<polygon class="st0" points="1068.5,414.8 1056.4,421.5 1044.5,414.4 1044.7,400.5 1056.9,393.8 1068.8,400.9 	"/>
	<polygon class="st0" points="948.9,402.9 968.9,399 982.2,414.5 975.5,433.7 955.4,437.5 942.1,422.1 	"/>
	<polygon class="st0" points="874.1,289 840.8,292 821.6,264.6 835.7,234.3 869,231.4 888.2,258.7 	"/>
	<polygon class="st0" points="1083.4,330.3 1083.3,336.5 1078,339.6 1072.6,336.4 1072.7,330.2 1078.1,327.2 	"/>
	<circle class="st0" cx="909" cy="405.2" r="21.9"/>
	<circle class="st0" cx="971.1" cy="305.3" r="4.8"/>
	<circle class="st0" cx="1151.5" cy="303.2" r="2.7"/>
	<circle class="st0" cx="1136.5" cy="386.8" r="3.5"/>
	<circle class="st0" cx="1169.7" cy="414" r="13.1"/>
	<circle class="st0" cx="874.9" cy="383.4" r="2.8"/>
	<circle class="st0" cx="921.2" cy="352.8" r="3.6"/>
	<circle class="st0" cx="996.9" cy="406.9" r="1.7"/>
	<polygon class="st0" points="891.9,326.7 896.8,331.7 894.9,338.4 888.1,340.1 883.3,335.1 885.2,328.4 	"/>
	<polygon class="st0" points="1114.4,303.2 1110,305.6 1105.7,303 1105.8,297.9 1110.3,295.5 1114.6,298.2 	"/>
	<polygon class="st0" points="898.4,274.1 911,266.2 924.2,273.2 924.7,288.1 912.1,296 898.9,289 	"/>
	<polygon class="st0" points="988.7,363.8 988.7,363.8 988.7,363.8 988.7,363.8 988.7,363.8 988.7,363.8 	"/>
	<polygon class="st0" points="1120.4,434 1087.6,444.9 1061.8,422 1068.7,388.2 1101.5,377.2 1127.3,400.1 	"/>
	<polygon class="st0" points="897.4,440.2 868.2,458 838.1,441.7 837.2,407.5 866.4,389.6 896.5,405.9 	"/>
	<circle class="st0" cx="903.8" cy="115.8" r="13.8"/>
	<circle class="st0" cx="950.6" cy="-1.2" r="8.8"/>
</g>
<g id="Calque_2">
	<g>
		<path class="st1" d="M603.5,518.9c-0.6-2.8-7.3-3.4-8.3-3.5c-11.4-1.1-15.4,7.8-25.2,5.9c-3.2-0.6-5-1.9-8.8-1.5
			c-4.1,0.5-7.6,2.8-8.3,3.3c-3,2.1-3.5,3.7-5.5,3.8c-2.1,0.1-3.9-1.6-5.3-2.8c-1.2-1.1-1.4-1.7-3.3-4c-2-2.5-2.6-2.9-3.8-4.4
			c-2.7-3.3-2.8-5.1-4.7-8.3c-1.8-3-6.3-9.4-8.8-8.8c-4.6,1.2,0.9,25.4-5,27.5c-5.4,2-13.7-16.4-23-14.5c-4.5,0.9-4,7.2-11.5,10.5
			c-3.2,1.4-6.5,1.8-10,2.3c-3.9,0.5-5.2,0.2-9.5,0.5c-0.4,0-5.7,0.4-11.6,1.7c-4.2,0.9-10,2.6-16.8,5.8c-0.4,0.2-0.9,0.4-1.5,0.8
			c-7.5,4-8.6,7.1-12.6,10.3c-1.2,1-3,2.2-5.5,3.2c-3,1.2-5.7,1.5-7.8,1.7c-2.9,0.3-3.4,0-6.7,0.3c-1.6,0.2-3.1,0.4-4.8,0.8
			c-4.7,1.3-8,3.8-9.5,5c-2.5,2.1-2.1,2.5-4.7,4.6c-0.7,0.6-3.1,2.4-6.5,3.8c-3.7,1.6-3.7,0.6-9.3,2.5c-0.9,0.3-1.2,0.4-9,3.4
			c-4.1,1.5-4,1.5-4.1,1.5c-6.1,3-6.3,5.6-12.7,8.3c-2.6,1.1-7.9,3.4-14.7,2.3c-1.9-0.3-6.4-1.2-10.8-4.5
			c-7.2-5.5-4.8-11.3-12.3-19.5c-0.4-0.4-1.4-1.1-2.3-1.9c-3.1-2.6-5.4-4.3-7.9-6.3c-9.9-7.8-10.4-8-11.5-8.5
			c-3.2-1.4-4.8-1.5-8-3.5c-3.1-2-5-4.2-6-5.5c-5.9-7.3-2.9-11.4-7.3-17.4c-4.1-5.6-11.3-8.1-18.6-10.6c-4.8-1.7-6.7-1.7-9.6-4
			c-5-4-4.3-7.9-8.1-9.6c-2.2-1-3.6-0.2-14.2,3.3c-12.1,3.9-12.7,3.7-15.1,5.4c-5.7,3.8-5.2,6.6-10,8.5c-5.9,2.3-11.7,0.2-13.1-0.3
			c-6.8-2.4-11.7-8.4-12.7-9.6c-1.5-1.8-2.6-3.7-5.3-5.2c-0.7-0.4-3.3-1.8-6.6-1.9c-3.2-0.1-4.6,1.1-13.5,5.6
			c-3.6,1.8-5.5,2.8-7.9,3.7c-1.5,0.6-4.7,1.9-9.1,3c-10.1,2.7-11.5,0.9-20.7,3.4c-5,0.8-9.6,2.8-12.1,3.8c-4.1,1.7-6.2,2.6-8.1,3.8
			c-2.2,1.4-3.6,2.5-6.4,3.5c-2.1,0.7-3.3,0.7-4.7,1c-0.1,0-0.3,0.1-0.4,0.1c-0.1,0-0.3,0-0.4,0c0,0,0.1,0.1,0.1,0.1
			c-3.9,0.9-9.8,3.7-10.7,8.2c-0.9,4.6,3.7,10.1,8.3,11.7c3.5,1.2,7.3,0.3,8,2c0.3,0.8-0.4,1.1-0.6,2.7c-0.3,2.3,0.9,3.4,1.7,6.3
			c0.4,1.4,0.4,2.6,0.5,4.9c0.2,8.5-1.5,16.1-0.5,21.8c1.4,7.5,6.6,6,11.7,15.3c7.1,13.1-1.1,19.9,6.3,31.3
			c4.6,7,10.2,8.2,11.3,15.7c0.7,4.2-0.5,7.8,2,10c2.9,2.6,7.7,0.8,8.3,2.3c0.5,1.5-4.6,2.9-5.6,6.4c-0.6,1.9-0.4,5.8,18.3,21.7
			c1.3,1.1,8.1,6.9,17.3,13.9c8.2,6.3,8.5,6,12.3,9.4c5.2,4.6,6.4,6.6,10.3,8.3c2.2,1,5.5,1.3,12,2c8.7,0.9,13.1,1.3,16,0.7
			c5.3-1.2,6.3-3.3,10.7-3c2.9,0.2,4,1.2,8.3,3c4.3,1.8,9.6,3.3,13,3.7c7.3,0.8,10.5-3.4,17.7-6c11-4,14.8,1.7,34.3,2.3
			c12.4,0.4,21.2,0.7,30.7-4.3c8.2-4.4,20.7-14.9,20.3-26.7c-0.2-5.4-3.1-11.3-0.5-13.1c0.6-0.5,1.3-0.4,4.5,0.1
			c9.7,1.5,11,2,13.3,1.3c2.5-0.7,4.5-2.4,5.7-3.3c1.9-1.6,2.3-2.4,3.3-3.3c5-4.5,15.5-0.5,15.7-1.3c0.2-0.6-6.1-2.5-6-3
			c0.1-0.5,8.1,1.7,17.3,2c7.7,0.2,13.6-1.1,17.7-2c10.7-2.4,17.9-6.3,23.3-9.3c0,0,7.6-4.7,11.7-10c1.9-2.6,3.3-5.3,3.3-5.3
			c1-1.9,1-2.4,1.3-3c3.1-5.2,18.8-0.8,19.7-3.3c0.5-1.6-5.4-3.9-5-6.3c0.1-0.5,0.7-2.3,11-3.8c6.3-0.9,12-1.1,17-1.2
			c10.4-0.2,12.9,0.2,14-1.7c1.6-2.8-2.9-6.3-2-13.3c0.3-2.5,1.1-4.2,2-6c3.2-6.7,8.5-10.9,12.3-13.3c4.2-4,7.9-7.4,10.7-10
			c16-14.9,19.1-17.4,23.7-17.3c5.6,0,9,3.7,13,1.3c2.4-1.5,2.3-3.5,5.3-5.7c3-2.1,5.5-1.8,9-2.3c8.8-1.4,15.8-7.2,15.3-8.7
			s-8.6,1-16-2.3c-3.5-1.6-4.2-3.2-4.3-4.1c0-0.2-0.2-1.3,0.3-2.3c0.3-0.5,1.2-1.8,6.3-2c3.4-0.1,6,0.3,6,0.3s6.8,1.3,13.3,1
			C595.3,529.8,604.4,522.5,603.5,518.9z"/>
		<path class="st2" d="M946,352.5c1.3-1,2.4-1.6,3.6-2.2C948.4,350.9,947.2,351.5,946,352.5c-4.8,3.5-4.9,6.1-11.1,15.6
			c-0.1,0.1-0.1,0.2-0.2,0.3c0.1-0.1,0.2-0.2,0.3-0.3C941.1,361.9,939.3,357.7,946,352.5z"/>
		<path class="st2" d="M959.4,346.6c-0.8,0.3-1.6,0.7-2.5,1c-0.8,0.3-1.5,0.6-2.2,0.8c0.7-0.2,1.5-0.5,2.3-0.8
			C957.7,347.3,958.6,347,959.4,346.6z"/>
		<path class="st3" d="M0.9,449.2c8.9,8.8,13.7,5.7,22.5,14.6c4.5,4.5,7.3,9.3,8.5,11.6c2.2,4.2,2.5,6.1,5.5,13.3
			c0.4,1,2.1,4.8,5.7,12.3c5.1,10.7,6.7,14.2,11,18.7c2.9,3,5.4,4.7,6.5,5.5c0.1,0.1,0.3,0.2,0.4,0.4c0.6,0.1,1.3,0.1,2.4,0.2
			c8.7,1.4,10.6,5.6,15,5.4c4.8-0.2,4.7-5.5,10.3-7c6.6-1.8,9.4,4.9,17,5c8.7,0.1,9.7-8.4,23-13.7c3.8-1.5,12-4.8,21.3-2.7
			c9.3,2.1,11.5,7.7,23,9.3c2,0.3,5.8,0.8,10.7,0c6.5-1,7-3,16-5.7c7.9-2.3,7.4-0.8,13.7-3c2.8-1,5.1-2,8-1.3c1.5,0.4,2.1,1,5.3,2.3
			c2.2,0.9,3.5,1.2,5,1.7c3.9,1.3,7.3,3.1,14,6.7c2.3,1.3,3.7,2.1,6,2.7c3.2,0.8,3.8,0.2,4.7,1c2.6,2.2-1.6,7.5,0.7,13.3
			c0.8,2.1,2.3,3.5,5.3,6.3c1.2,1.1,3.1,2.7,7.3,5.3c6.5,3.9,7.2,3.2,10,5.3c6.8,5,5.6,11.9,10.3,13c3.6,0.8,7.1-2.4,8-1.3
			c0.7,0.9-1.8,2.8-1.7,6.3c0.1,2.3,1.2,4,1.7,4.7c2,2.9,5,3.9,6.3,4.3c1.7,0.6,2.6,0.5,3.7,0.7c5.5,1,7,7,11,10
			c1.8,1.3,5,2.8,18.3,0c19-4.1,17.5-8.2,27.3-8.7c2.6-0.1,12.4,1,32,4c2.1,0.3,6.6,1,7.5-0.8c1.8-3.4-10.6-12.7-9.5-14.2
			c1.3-1.7,17.4,8.8,19.4,6.3c1.2-1.5-4-5.9-2.3-10c1.4-3.4,5.3-5,6-5.3c8.4-3.1,16.9,4.5,19,2c1.8-2-3.6-7.1-1.3-11.7
			c0.8-1.7,2.5-2.6,5.3-4.3c2.4-1.5,4.5-2.2,7.3-3c11.6-3.5,17.4-5.2,20.7-3.7c1.7,0.7,3.1,1.9,4.3,1.3c1.7-1,0.2-4.3,2.3-6.7
			c1.8-2,5-2.2,7.7-2.3c3.4-0.1,4.7,0.7,7-0.3c2-0.9,2.7-2.3,3.3-2c1.2,0.6-2.2,6.1,0,9.7c1.2,2,4.2,3.1,5.3,2.3
			c2-1.5-2.3-9.3-0.7-10.3c1-0.6,3,2.2,6.3,4c5.8,3.2,14.8,3,18.7-1c5.9-6-0.9-19.6,1.7-20.6c2.5-1,6.7,13.2,20,19.6
			c1.2,0.5,2.5,1,4.3,1.5c2.7-4,3.2-8.4,7.6-9.9c0.7-0.2,2.8-0.1,7,0c7.1,0.2,8.3,0.7,11.3,0.3c1.1-0.1,3.3-0.4,8.4-2.4
			c4.4-1.7,9.8-4.1,16.5-8.2c4.7-2.9,12.4-7.6,16.3-12.8c2.1-2.8,3.3-4.7,3.3-4.7c2-3,2.1-3.9,3.3-5.2c2.1-2.3,4.7-3.2,6.2-3.7
			c3.8-1.2,4.8-0.1,11.4-0.9c0.8-0.1,3.2-0.4,6.3-1.1c4.5-1,6.4-1.9,9.8-1.8c1.8,0,3.2,0.3,4,0.5c7.2,1.5,9.8,5.6,12.5,4.3
			c1.2-0.6,1.8-1.9,2.2-2.7c0.8-1.7,0.4-2.9,1.5-4.9c0,0,0.5-0.9,1.4-2c2.4-2.8,14.2-4.7,26.5,1.2c4.5,2.1,7.7,4.7,13.2,9
			c5.9,4.6,5.5,5.2,9.4,8c1.9,1.4,9,6.2,19.4,8.6c6.1,1.4,11.6,2.8,18,1c4.3-1.2,7.4-2.9,7.4-2.9c4.7-2.5,6.2-4.8,9.7-4.8
			c2.4-0.1,4.2,0.9,5,1.3c2.9,1.6,4.4,4.1,5,5.2c1,1.7,5.3,6.9,13.8,17.2c3.7,4.5,5.7,6.8,8.8,9.9c4.4,4.3,5,4,7.3,6.9
			c3.3,4.1,2.8,5.6,7,11c1.9,2.4,2.3,2.6,4.2,5.2c2.8,3.9,4.2,5.9,4.5,6.7c0.1,0.1,0.2,0.6,0.7,1c0.8,0.7,2,0.7,2.2,0.7
			c0.4,0,1.5-0.2,3-2c2.2-2.7,2.8-6.1,3-8c4.3-23.4,4.8-27.3,4.8-27.3c1.2-9,2.1-13.7,3.2-13.7c1,0,1.9,3.5,2.2,4.5
			c0.6,2.2,0.6,4.1,0.5,5.3c1,4.7,1.5,8.6,1.8,11.2c0.7,5.6,0.4,6.2,1.2,11.4c0.8,5.4,1.3,5.7,1.7,10.1c0.3,3.5,0.1,4.5,0.7,7.6
			c0.5,2.8,1.2,5,1.8,6.8c0.1,0.5,0.7,1.9,1.7,4.7c0,0,0.7,1.6,1.5,3c0.4,0.8,1.7,2,3.7,3.3c2.9-1.7,5.5-3.7,7.7-6.4
			c1.4-1.6,3.5-4.5,7-15.5c6.1-18.9,4.1-23.9,9.5-28c5.9-4.6,11.3-0.7,15-5.5c4.2-5.5-1.4-12.3,3.5-19.5c2.1-3.1,3.5-2.2,8-7
			c4.7-5,4.5-7.3,7.7-11.2c6.3-7.8,11.3-4.4,18.5-11.5c0.1-0.1,0.1-0.2,0.2-0.3c6.2-9.5,6.3-12.1,11-15.6c1.3-1,2.5-1.6,3.7-2.2
			c1.5-0.7,3.1-1.2,5.2-1.9c0.7-0.2,1.4-0.5,2.2-0.8c0.9-0.3,1.7-0.7,2.5-1c2.9-1.3,6.5-3.3,11.4-6.2c2-1.2,4.3-2.6,7.2-4.3
			c3.3-2,6.6-3.9,9.8-5.8c9.2-5.6,9-5.8,16.7-10.2c2.2-1.3,4.3-2.4,6.5-3.7v-3.7c0,0-0.1,0-0.1,0c-3.1-0.9-3.2-2.5-5.2-2.9
			c-4.5-0.9-6.8,6.8-13.4,7.6c-3.4,0.4-3.8-1.5-7.8-1.7c-5.8-0.3-9.5,3.6-15,7.5c-7.4,5.2-13.5,9.6-20.5,10
			c-10.8,0.6-12.4-8.9-28-10.5c-3.1-0.3-6.6-0.3-11.5-2c-4.4-1.5-7.4-3.5-11-6c-9.9-6.7-11.4-10.9-16-10.5c-3,0.3-3.5,2.1-8,2.5
			c-2.2,0.2-4.2-0.1-7.5-1c-7.3-2-9.1-3.8-12-4.5c-10.2-2.4-15.6,14.1-30.5,15.5c-8,0.8-7.7-3.9-16.5-3.5c-15.1,0.7-19.4,14.6-31,13
			c-7.8-1-8.4-7.8-16.1-7.7c-5.6,0-6.7,3.6-18.4,10.7c-4.1,2.5-2.2,1-19.9,9.8c-11.3,5.6-13.4,6.8-18.1,7.7
			c-3.9,0.7-9.5,1.7-15.5-0.5c-8.2-3.1-8-8.9-14.1-10.7c-6.8-2-9.9,4.3-24.4,10.7c-15.5,6.9-18.5,2.5-31.5,10c-4.2,2.4-7.6,5-15,8.5
			c-10,4.7-13.8,4.6-16.5,4c-3.1-0.7-3.4-1.9-9.5-5c-5.2-2.7-8.9-3.9-12-5c-11.1-4-17.2-8.2-39-18c-20.3-9.1-20-7.6-31-13.5
			c-13.7-7.3-14-9.3-19-9.5c-7.7-0.3-10.6,4.5-36.3,22.6c-8.7,6.2-12.7,8.7-18.7,9.9c-6.9,1.4-12.7,0.4-20.5-1
			c-11-1.9-19.3-5.2-22.5-6.5c-8.8-3.6-19.1-7.9-30-15.5c-3-2.1-7.4-5.4-13-5c-4.7,0.3-5.6,2.9-9,3c-8.5,0.3-9.7-15.9-20.5-20.5
			c-13-5.5-26.2,11.5-35.9,4.9c-5.8-3.9-4.6-12.3-12.9-15.8c-2.9-1.3-5.3-1.1-7.7-3.6c-3.4-3.4-2.1-6.9-5-8.5c-2.8-1.5-4.7,1.2-10,0
			c-3.3-0.7-3.2-1.9-5.5-2c-3.7-0.1-5.1,2.9-10,5c-3.3,1.4-4.4,0.7-8,1.5c-2,0.4-5.9,1.6-23.5,15.5c-3.2,2.5-5,4-7.2,3.6
			c-4.1-0.8-4.5-7.6-8.3-8.1c-2.4-0.3-2.8,2.2-8,5c-5.2,2.7-6.5,1.1-9.4,3.7c-2.8,2.5-2.8,5-5.8,6.3c-1.7,0.7-3.2,0.5-4.3,0.4
			c-5.8-0.2-9.2,4.1-18.5,9.6c-6.1,3.6-9.2,5.5-13.5,6.3c-7.9,1.6-14.6-1.1-17.5-2.3c-18.9-7.5-12.7,0.2-67-18
			C25.8,416.9,15,413.3,0,407.1v41.2C0.3,448.6,0.6,448.9,0.9,449.2z"/>
		<path class="st4" d="M867.9,575.9c-0.8-1.4-1.5-3-1.5-3c-1-2.8-1.6-4.2-1.7-4.7c-0.6-1.8-1.3-4-1.8-6.8c-0.6-3.1-0.4-4.1-0.7-7.6
			c-0.4-4.4-0.9-4.7-1.7-10.1c-0.8-5.2-0.5-5.8-1.2-11.4c-0.3-2.6-0.8-6.5-1.8-11.2c0.1-1.2,0.1-3.1-0.5-5.3c-0.3-1-1.2-4.5-2.2-4.5
			c-1.1,0-2,4.7-3.2,13.7c0,0-0.5,3.9-4.8,27.3c-0.2,1.9-0.8,5.3-3,8c-1.5,1.8-2.6,2-3,2c-0.2,0-1.4,0-2.2-0.7
			c-0.5-0.4-0.6-0.9-0.7-1c-0.3-0.8-1.7-2.8-4.5-6.7c-1.9-2.6-2.3-2.8-4.2-5.2c-4.2-5.4-3.7-6.9-7-11c-2.3-2.9-2.9-2.6-7.3-6.9
			c-3.1-3.1-5.1-5.4-8.8-9.9c-8.5-10.3-12.8-15.5-13.8-17.2c-0.6-1.1-2.1-3.6-5-5.2c-0.8-0.4-2.6-1.4-5-1.3c-3.5,0-5,2.3-9.7,4.8
			c0,0-3.1,1.7-7.4,2.9c-6.4,1.8-11.9,0.4-18-1c-10.4-2.4-17.5-7.2-19.4-8.6c-3.9-2.8-3.5-3.4-9.4-8c-5.5-4.3-8.7-6.9-13.2-9
			c-12.3-5.9-24.1-4-26.5-1.2c-0.9,1.1-1.4,2-1.4,2c-1.1,2-0.7,3.2-1.5,4.9c-0.4,0.8-1,2.1-2.2,2.7c-2.7,1.3-5.3-2.8-12.5-4.3
			c-0.8-0.2-2.2-0.5-4-0.5c-3.4-0.1-5.3,0.8-9.8,1.8c-3.1,0.7-5.5,1-6.3,1.1c-6.6,0.8-7.6-0.3-11.4,0.9c-1.5,0.5-4.1,1.4-6.2,3.7
			c-1.2,1.3-1.3,2.2-3.3,5.2c0,0-1.2,1.9-3.3,4.7c-3.9,5.2-11.6,9.9-16.3,12.8c-6.7,4.1-12.1,6.5-16.5,8.2c-5.1,2-7.3,2.3-8.4,2.4
			c-3,0.4-4.2-0.1-11.3-0.3c-4.2-0.1-6.3-0.2-7,0c-4.4,1.5-4.9,5.9-7.6,9.9c-0.6,0.9-1.4,1.8-2.3,2.6c-5,4.3-10,1.9-18.3,3.7
			c-3.6,0.8-9.7,2.8-21.9,14.2c-28.6,26.9-35.7,54.3-51.4,53.9c-3.9-0.1-8.2-2.3-12.7,0.3c-4.3,2.5-6,7.6-6.8,11.4
			c-1.5,1.1-3.7,2.9-6.5,5c-15.9,12.2-20.5,15.2-25.3,18c-0.6,0.4-4.4,2.9-8.2,4.3c-20.5,7.4-30.6-1.9-44.4,6
			c-8.2,4.7-7.8,9.5-15.1,10.7c-7.6,1.2-13.3-3.4-18.8,0c-2.9,1.8-4,4.6-4.8,6.5c-5.6,12.5-22.7,23.8-37.3,27
			c-11.8,2.5-11.7-3.6-25.3-0.7c-8.8,1.9-16.3,6.1-26.3,5.9c-5-0.1-9.7-1.1-9.7-1.1c-4.3-0.9-6.9-2.1-8.8-2.7
			c-2.6-0.9-7.4-0.9-16.4-0.5c1,0,2.1,0,3.5,0.1c11.7,0.7,16.2,3.4,27.6,4.6c3.3,0.4,8.5,0.7,22.8-0.4c14.8-1.1,35.5-2.8,63.8-9.7
			c22.8-5.6,20.6-7.3,34.7-9.4c16.6-2.5,24-0.9,40.9-5.6c7.2-2,13.3-3.7,21.1-7.6c12-6,16.6-11.6,27.8-13.4
			c5.3-0.9,9.3-0.5,12.8-0.1c12.8,1.3,22.4,6.4,36.9,15c17.5,10.5,18.9,12.4,27,17c8.4,4.8,32.8,18.5,63.2,19.4
			c6.4,0.2,19.5-1.8,45.6-5.8c11.6-1.8,20.3-3.3,33.2-5.7c21.4-3.8,32.4-5.8,43.2-8.5c16.1-4,24.2-5.9,33.3-9.9
			c21.2-9.3,20.5-15.8,35-19.5c20.6-5.3,28.9,5.9,38.5-1.5c7.4-5.7,8.9-18.8,12-45c1.7-14.6,0.7-16.5,3.5-19.5
			c8.3-9,23.4,0.4,48-8.5c1.9-0.7,3.7-1.5,5.4-2.3c0.8-0.4,1.6-0.8,2.3-1.3C869.6,577.9,868.3,576.7,867.9,575.9z"/>
		<path class="st4" d="M141.5,679.9c-23.5-25.5-25.7-29-27.8-33.5c-2.1-4.6-2.4-6.3-8-19.2c-4.2-9.6-5.3-10.9-7.6-16.8
			c-3.8-9.8-3.9-13.6-6.6-22.2c-3.9-12.4-5.9-11.9-11.4-25.8c-5-12.5-14.3-40.9-19.1-45.6c-0.1-0.1-0.3-0.3-0.4-0.4
			c-1.1-0.8-3.6-2.5-6.5-5.5c-4.3-4.5-5.9-8-11-18.7c-3.6-7.5-5.3-11.3-5.7-12.3c-3-7.2-3.3-9.1-5.5-13.3c-1.2-2.3-4-7.1-8.5-11.6
			c-8.8-8.9-13.6-5.8-22.5-14.6c-0.3-0.3-0.6-0.6-0.9-0.9V455v208c10.5,3.6,19.6,5.1,26.1,6c25.6,3.2,42.1-0.2,65.5,3.4
			c7.3,1.1,14.9,2.8,19.4,8.8c2,2.7,2.2,4.8,5.6,8.2c4.1,4.2,10.1,7.6,10.1,7.6c13.5,0.7,23.7,0.7,23.7,0.7s4,0,10.4-0.2
			C156.8,696.2,153.4,692.8,141.5,679.9z"/>
		<path d="M175.6,590.6c-1,0-2,0.1-3,0.1C173.6,590.7,174.6,590.6,175.6,590.6z"/>
		<path d="M949.6,350.3c1.5-0.7,3.1-1.2,5.2-1.9C952.6,349.1,951.1,349.6,949.6,350.3z"/>
		<path d="M910,531.7c-16.7,355.2,63.2,140.2,58.2-22.7C964.3,508.1,910,531.5,910,531.7z"/>
		<path d="M1000.8,430.5c-0.9,0.6-2,1.2-3.1,1.9c-5.6,3.3-10.1,6.1-13.9,8.2c-4.6,2.8-7.5,4.5-11.4,6.2c-0.9,0.4-1.7,0.7-2.4,1
			c-0.8,0.3-1.6,0.6-2.3,0.8c-2.1,0.7-3.7,1.2-5.2,1.9c-1.2,0.5-2.3,1.2-3.6,2.2c-6.7,5.2-4.9,9.4-11,15.6c-0.1,0.1-0.2,0.2-0.3,0.3
			c-7.2,7.1-12.2,3.7-18.5,11.5c-3.2,3.9-3,6.2-7.7,11.2c-4.5,4.8-5.9,3.9-8,7c-4.9,7.2,0.7,14-3.5,19.5c-3.7,4.8-9.1,0.9-15,5.5
			c-5.4,4.1-3.4,9.1-9.5,28c-3.5,11-5.6,13.9-7,15.5c-2.3,2.7-4.8,4.8-7.7,6.4c-0.8,0.4-1.5,0.9-2.3,1.3c-1.7,0.8-3.5,1.6-5.4,2.3
			c-24.6,8.9-39.7-0.5-48,8.5c-2.8,3-1.8,4.9-3.5,19.5c-3.1,26.2-4.6,39.3-12,45c-9.6,7.4-17.9-3.8-38.5,1.5
			c-14.5,3.7-13.8,10.2-35,19.5c-9.1,4-17.2,5.9-33.3,9.9c-10.8,2.7-21.8,4.7-43.2,8.5c-12.9,2.4-21.6,3.9-33.2,5.7
			c-26.1,4-39.2,6-45.6,5.8c-30.4-0.9-54.8-14.6-63.2-19.4c-8.1-4.6-9.5-6.5-27-17c-14.5-8.6-24.1-13.7-36.9-15
			c-3.5-0.4-7.5-0.8-12.8,0.1c-11.2,1.8-15.8,7.4-27.8,13.4c-7.8,3.9-13.9,5.6-21.1,7.6c-16.9,4.7-24.3,3.1-40.9,5.6
			c-14.1,2.1-11.9,3.8-34.7,9.4c-28.3,6.9-49,8.6-63.8,9.7c-14.3,1.1-19.5,0.8-22.8,0.4c-11.4-1.2-15.9-3.9-27.6-4.6
			c-1.4-0.1-2.5-0.1-3.5-0.1c-1,0-2,0.1-3,0.1c-1.4,0.1-3.1,0.3-5.5,0.5c-1.1,0-3.1,0.2-7,0.4c-0.9,0.1-1.8,0.1-2.7,0.2
			c-0.7,0.2-4,1.2-6.9,0.9c-0.4,0-0.9-0.1-0.9-0.1c-0.6-0.1-1.2-0.2-1.7-0.4c-6.4,0.2-10.4,0.2-10.4,0.2s-10.2,0-23.7-0.7
			c0,0-6-3.4-10.1-7.6c-3.4-3.4-3.6-5.5-5.6-8.2c-4.5-6-12.1-7.7-19.4-8.8c-23.4-3.6-39.9-0.2-65.5-3.4c-6.5-0.8-15.6-2.3-26.1-6
			V682v86.3h1024V417.1C1018.7,420.4,1010.2,425.1,1000.8,430.5z M916.1,542.9c-0.1-0.2,5.7-4,9.6-3.1
			C920.5,541.7,916.2,543.1,916.1,542.9z"/>
	</g>
</g>
<g id="Calque_3">
	<g id="Calque_1_1_" class="st5">
		<polygon class="st6" points="422.2,815.8 427.1,800.7 442.4,797.5 452.8,809.3 448,824.3 432.6,827.6 		"/>
		<polygon class="st7" points="383.3,765.4 381.2,747 395.9,736 412.7,743.4 414.7,761.7 400,772.7 		"/>
		<polygon class="st8" points="334.8,787.3 340.8,810.3 324.2,827.1 301.5,821 295.5,798 312,781.2 		"/>
		<polygon class="st6" points="528.9,767.9 527,785.5 511,792.6 496.9,782.2 498.8,764.6 514.8,757.5 		"/>
		<polygon class="st6" points="674.4,793.1 678.1,760.9 707.5,748 733.2,767.3 729.6,799.5 700.2,812.4 		"/>
		<polygon class="st6" points="624.6,767.9 629.1,784.7 617,797 600.4,792.5 595.9,775.8 608,763.5 		"/>
		<polygon class="st8" points="247.9,775.1 237.5,751.9 252.2,731.2 277.3,733.7 287.6,756.9 272.9,777.6 		"/>
		<polygon class="st9" points="1273,533.8 1252.8,527.1 1248.6,506.5 1264.6,492.6 1284.8,499.3 1289,520 		"/>
		<polygon class="st9" points="1273.6,612.9 1258.6,589.2 1271.8,564.5 1300.1,563.4 1315.2,587.1 1302,611.8 		"/>
		<polygon class="st9" points="1279.2,687.2 1267.4,692.4 1256.9,684.8 1258.3,672.1 1270.2,666.9 1280.6,674.5 		"/>
		<polygon class="st9" points="1247.2,795.5 1246.3,770.3 1267.9,757 1290.4,768.8 1291.3,793.9 1269.7,807.3 		"/>
		<polygon class="st9" points="1296.6,892.8 1277.6,899.4 1262.2,886.3 1266,866.7 1285.1,860.1 1300.4,873.2 		"/>
		<polygon class="st9" points="1228.4,973.3 1214.2,945.4 1231.6,919.2 1263.2,921.1 1277.4,949 1260,975.1 		"/>
		<polygon class="st9" points="1337,1080.6 1288.1,1094.1 1252,1059 1264.6,1010.4 1313.4,997 1349.6,1032.1 		"/>
		<polygon class="st9" points="1300.8,646.6 1287.8,655.1 1273.9,648.2 1273,632.9 1286,624.4 1299.9,631.3 		"/>
		<polygon class="st6" points="562.7,817.7 567.4,830.1 559.1,840.5 546.1,838.4 541.4,826 549.7,815.6 		"/>
	</g>
	<g id="Calque_2_1_" class="st5">
		<ellipse class="st8" cx="314.1" cy="763.5" rx="11.8" ry="11.9"/>
		<ellipse class="st8" cx="276.9" cy="832.8" rx="37.2" ry="37.6"/>
		<ellipse class="st6" cx="471" cy="844.9" rx="12" ry="12.1"/>
		<ellipse class="st9" cx="393.6" cy="862.7" rx="7.7" ry="7.8"/>
		<ellipse class="st6" cx="744.9" cy="855.6" rx="26.9" ry="27.2"/>
		<ellipse class="st6" cx="654.4" cy="858.4" rx="11.8" ry="11.9"/>
		<ellipse class="st9" cx="1175.1" cy="856.2" rx="14.3" ry="14.1"/>
		<ellipse class="st9" cx="1266.3" cy="704.2" rx="8.7" ry="8.6"/>
		<ellipse class="st9" cx="1176.1" cy="559.4" rx="42.4" ry="41.9"/>
		<ellipse class="st9" cx="1290.1" cy="520.9" rx="17.9" ry="17.6"/>
		<ellipse class="st9" cx="1189" cy="697.3" rx="12.9" ry="12.7"/>
	</g>
	<circle class="st10" cx="239.7" cy="872.5" r="6.3"/>
	<polygon class="st11" points="501.2,870.6 495.9,867.5 495.9,861.3 501.2,858.2 506.5,861.3 506.5,867.5 	"/>
	<ellipse class="st11" cx="592.1" cy="845.7" rx="5.2" ry="5.3"/>
	<polygon class="st10" points="64.5,810.2 69.4,824.2 59.8,835.4 45.4,832.6 40.6,818.6 50.2,807.4 	"/>
	<polygon class="st10" points="123.4,860.1 102.9,870.5 83.8,857.7 85.2,834.6 105.6,824.2 124.7,837 	"/>
	<polygon class="st10" points="201.8,780.7 211.6,816.4 186,842.8 150.5,833.6 140.7,797.9 166.3,771.5 	"/>
	<polygon class="st10" points="36,810.1 38.8,825.5 27.2,835.7 12.6,830.5 9.7,815.2 21.4,805 	"/>
	<polygon class="st10" points="937.7,780.7 935.2,757.9 953.4,744.3 974.2,753.4 976.8,776.2 958.5,789.9 	"/>
	<polygon class="st10" points="877.4,808 884.9,836.6 864.3,857.5 836.1,849.8 828.5,821.3 849.2,800.4 	"/>
	<polygon class="st12" points="52.4,699.6 50.1,721.5 30.2,730.3 12.7,717.3 15.1,695.5 35,686.7 	"/>
	<polygon class="st11" points="769.4,792.8 756.5,763.9 774.8,738.2 805.9,741.4 818.8,770.2 800.6,796 	"/>
	<polygon class="st10" points="94.5,761.5 100.4,777 90,789.8 73.9,787.2 68,771.8 78.3,758.9 	"/>
	<ellipse class="st10" cx="860.6" cy="733.2" rx="14.7" ry="14.8"/>
	<ellipse class="st11" cx="814.4" cy="819.4" rx="46.3" ry="46.8"/>
	<ellipse class="st12" cx="-10.6" cy="750.2" rx="14.9" ry="15.1"/>
	<ellipse class="st10" cx="959.4" cy="856.5" rx="9.5" ry="9.6"/>
	<circle class="st11" cx="768.1" cy="868.8" r="7.8"/>
	<polygon class="st10" points="27,782.1 20.4,778.3 20.4,770.5 27,766.7 33.6,770.5 33.6,778.3 	"/>
	<polygon class="st12" points="807.2,712.6 810.3,722.8 803.1,730.5 792.7,727.9 789.6,717.7 796.9,710 	"/>
	<polygon class="st12" points="839.4,689.4 834,702.4 820.1,704.2 811.4,692.9 816.8,679.9 830.7,678.1 	"/>
	<polygon class="st12" points="868.2,665.6 873.7,669 873.7,675.4 868.1,678.5 862.5,675.2 862.6,668.7 	"/>
	<polygon class="st12" points="921.8,647.4 911.8,655 900,650.1 898.4,637.4 908.4,629.8 920.1,634.7 	"/>
	<polygon class="st12" points="947.4,599 955.6,604.9 954.7,614.9 945.5,619.1 937.3,613.2 938.2,603.1 	"/>
	<polygon class="st12" points="1000.1,603.6 992.7,617.5 977,617.9 968.6,604.5 975.9,590.6 991.7,590.1 	"/>
	<polygon class="st12" points="1012.6,528.1 1032.2,544.2 1028.3,569.2 1004.8,578 985.2,561.9 989,536.9 	"/>
	<polygon class="st12" points="845.3,668.5 852.6,671.4 853.8,679.1 847.8,683.9 840.5,681 839.3,673.4 	"/>
	
		<ellipse transform="matrix(0.8166 -0.5772 0.5772 0.8166 -203.1163 679.3857)" class="st12" cx="967.6" cy="659.3" rx="7.1" ry="7.2"/>
	
		<ellipse transform="matrix(0.8166 -0.5772 0.5772 0.8166 -223.2181 629.4379)" class="st12" cx="878.9" cy="666" rx="4.3" ry="4.4"/>
	
		<ellipse transform="matrix(0.8166 -0.5772 0.5772 0.8166 -274.8054 624.7365)" class="st10" cx="845.7" cy="744.8" rx="21" ry="21.3"/>
	
		<ellipse transform="matrix(0.8166 -0.5772 0.5772 0.8166 -263.2631 590.075)" class="st12" cx="796.9" cy="709.3" rx="8.9" ry="9"/>
	
		<ellipse transform="matrix(0.8166 -0.5772 0.5772 0.8166 -239.0382 646.8854)" class="st12" cx="898.4" cy="699.6" rx="6.4" ry="6.5"/>
	<circle class="st12" cx="99.4" cy="709" r="9.4"/>
	<circle class="st12" cx="419.5" cy="705.2" r="4.8"/>
	<circle class="st11" cx="628.1" cy="720.2" r="10.1"/>
	<circle class="st12" cx="186.1" cy="725.7" r="5.5"/>
	<polygon class="st12" points="325.2,718 311.1,718 304,730.3 311.1,742.6 325.2,742.6 332.3,730.3 	"/>
	<polygon class="st11" points="488.7,688.1 463.3,688.1 450.6,710 463.3,732 488.7,732 501.4,710 	"/>
	<polygon class="st12" points="852,607.5 841.1,607.5 835.7,616.9 841.1,626.3 852,626.3 857.4,616.9 	"/>
	<polygon class="st12" points="910.9,531.9 900.3,531.9 895,541.1 900.3,550.3 910.9,550.3 916.2,541.1 	"/>
	<polygon class="st11" points="572.9,726.5 561.9,726.5 556.4,736 561.9,745.6 572.9,745.6 578.4,736 	"/>
	<polygon class="st12" points="148.5,742 141.5,742 138,748.1 141.5,754.2 148.5,754.2 152,748.1 	"/>
</g>
<g id="Calque_4">
	<g id="Calque_1_2_" class="st13">
		<polygon class="st6" points="739,730.7 734.9,743.1 722.3,745.8 713.7,736 717.7,723.7 730.4,721 		"/>
		<polygon class="st7" points="771.1,772.3 772.7,787.4 760.7,796.4 746.8,790.4 745.2,775.3 757.3,766.2 		"/>
		<polygon class="st8" points="811.1,754.2 806,735.2 819.8,721.4 838.4,726.4 843.4,745.4 829.8,759.2 		"/>
		<polygon class="st6" points="651.1,770.1 652.6,755.7 665.8,749.8 677.4,758.4 675.8,772.9 662.6,778.7 		"/>
		<polygon class="st6" points="531.1,749.4 528.1,775.9 503.8,786.6 482.6,770.7 485.6,744.1 509.8,733.5 		"/>
		<polygon class="st6" points="572.1,770.1 568.5,756.3 578.4,746.2 592.1,749.9 595.8,763.7 585.8,773.8 		"/>
		<polygon class="st8" points="882.7,764.3 891.2,783.4 879.1,800.4 858.4,798.4 849.9,779.2 862,762.2 		"/>
		<polygon class="st9" points="37.7,963.1 54.3,968.7 57.8,985.7 44.6,997.1 28,991.6 24.5,974.6 		"/>
		<polygon class="st9" points="37.1,897.9 49.5,917.5 38.6,937.9 15.3,938.7 2.9,919.2 13.8,898.8 		"/>
		<polygon class="st6" points="32.5,836.7 42.3,832.4 50.9,838.7 49.7,849.2 39.9,853.4 31.4,847.2 		"/>
		<polygon class="st6" points="58.9,747.5 59.7,768.2 41.9,779.2 23.3,769.5 22.6,748.7 40.3,737.7 		"/>
		<polygon class="st6" points="18.2,667.2 33.9,661.8 46.6,672.5 43.4,688.7 27.7,694.2 15.1,683.4 		"/>
		<polygon class="st6" points="74.4,600.9 86.1,623.9 71.8,645.4 45.7,643.9 34,620.9 48.4,599.4 		"/>
		<polygon class="st6" points="-15.1,512.4 25.2,501.3 55,530.3 44.6,570.3 4.3,581.3 -25.5,552.4 		"/>
		<polygon class="st6" points="14.8,870.2 25.4,863.2 36.9,868.8 37.7,881.5 27,888.5 15.5,882.8 		"/>
		<polygon class="st6" points="623.2,729.1 619.3,718.9 626.1,710.4 636.9,712.1 640.7,722.3 633.9,730.8 		"/>
	</g>
	<g id="Calque_2_2_" class="st13">
		<ellipse class="st8" cx="828.1" cy="773.8" rx="9.7" ry="9.8"/>
		<ellipse class="st8" cx="858.7" cy="716.7" rx="30.7" ry="31"/>
		<ellipse class="st6" cx="698.8" cy="706.7" rx="9.9" ry="10"/>
		<ellipse class="st9" cx="762.6" cy="692.1" rx="6.3" ry="6.4"/>
		<ellipse class="st6" cx="473" cy="697.9" rx="22.2" ry="22.4"/>
		<ellipse class="st6" cx="547.5" cy="695.6" rx="9.7" ry="9.8"/>
		<ellipse class="st6" cx="118.4" cy="697.4" rx="11.8" ry="11.6"/>
		<ellipse class="st6" cx="43.2" cy="822.7" rx="7.2" ry="7.1"/>
		<ellipse class="st9" cx="117.5" cy="942" rx="35" ry="34.6"/>
		<ellipse class="st9" cx="23.6" cy="973.8" rx="14.7" ry="14.5"/>
		<ellipse class="st6" cx="106.9" cy="828.3" rx="10.6" ry="10.5"/>
	</g>
	<circle class="st14" cx="889.4" cy="683.9" r="5.2"/>
	<polygon class="st15" points="673.8,685.5 678.2,688.1 678.2,693.2 673.8,695.8 669.5,693.2 669.5,688.1 	"/>
	<ellipse class="st15" cx="598.9" cy="706" rx="4.3" ry="4.4"/>
	<polygon class="st14" points="1033.8,735.3 1029.8,723.8 1037.7,714.6 1049.5,716.8 1053.5,728.4 1045.6,737.6 	"/>
	<polygon class="st14" points="985.3,694.2 1002.2,685.6 1017.9,696.1 1016.8,715.2 1000,723.7 984.2,713.2 	"/>
	<polygon class="st14" points="920.7,759.6 912.5,730.2 933.7,708.4 962.9,716 971,745.4 949.9,767.3 	"/>
	<polygon class="st14" points="1057.4,735.4 1055,722.7 1064.6,714.3 1076.6,718.6 1079,731.2 1069.4,739.6 	"/>
	<polygon class="st14" points="314,759.6 316.1,778.4 301.1,789.7 283.9,782.1 281.8,763.3 296.9,752.1 	"/>
	<polygon class="st14" points="363.8,737.1 357.5,713.6 374.6,696.3 397.8,702.6 404,726.2 387,743.4 	"/>
	<polygon class="st16" points="1043.8,826.4 1045.7,808.5 1062.1,801.2 1076.5,811.9 1074.6,829.9 1058.2,837.1 	"/>
	<polygon class="st15" points="452.8,749.7 463.4,773.5 448.3,794.6 422.7,792 412,768.3 427.1,747.1 	"/>
	<polygon class="st14" points="1009.1,775.5 1004.3,762.7 1012.8,752.1 1026.1,754.2 1030.9,767 1022.4,777.6 	"/>
	<ellipse class="st14" cx="377.6" cy="798.8" rx="12.1" ry="12.2"/>
	<ellipse class="st15" cx="415.7" cy="727.7" rx="38.1" ry="38.6"/>
	<circle class="st15" cx="453.9" cy="687" r="6.4"/>
	<polygon class="st14" points="1064.8,758.5 1070.2,761.6 1070.2,768 1064.8,771.2 1059.3,768 1059.3,761.6 	"/>
	<polygon class="st16" points="421.6,815.8 419.1,807.4 425,801.1 433.5,803.1 436.1,811.5 430.1,817.9 	"/>
	<polygon class="st16" points="395.1,834.9 399.5,824.2 411,822.7 418.1,832 413.7,842.8 402.2,844.2 	"/>
	<polygon class="st16" points="371.3,854.5 366.8,851.7 366.8,846.4 371.5,843.8 376,846.6 376,852 	"/>
	<polygon class="st16" points="327.2,869.5 335.4,863.2 345.1,867.3 346.5,877.7 338.2,884 328.5,879.9 	"/>
	<polygon class="st16" points="306.1,909.4 299.3,904.6 300.1,896.3 307.6,892.9 314.4,897.7 313.6,906 	"/>
	<polygon class="st16" points="390.2,852.1 384.2,849.7 383.2,843.4 388.2,839.4 394.1,841.8 395.1,848.1 	"/>
	
		<ellipse transform="matrix(0.8166 -0.5772 0.5772 0.8166 -426.5551 365.8972)" class="st16" cx="362.5" cy="854.2" rx="3.5" ry="3.6"/>
	
		<ellipse transform="matrix(0.8166 -0.5772 0.5772 0.8166 -384.0313 369.7726)" class="st14" cx="389.9" cy="789.2" rx="17.3" ry="17.5"/>
	
		<ellipse transform="matrix(0.8166 -0.5772 0.5772 0.8166 -393.5457 398.3443)" class="st16" cx="430.1" cy="818.5" rx="7.3" ry="7.4"/>
	
		<ellipse transform="matrix(0.8166 -0.5772 0.5772 0.8166 -413.5145 351.5151)" class="st16" cx="346.4" cy="826.5" rx="5.3" ry="5.3"/>
	<circle class="st16" cx="1005.1" cy="818.7" r="7.7"/>
	<circle class="st17" cx="741.2" cy="821.8" r="4"/>
	<circle class="st15" cx="569.2" cy="809.5" r="8.3"/>
	<circle class="st16" cx="933.6" cy="805" r="4.6"/>
	<polygon class="st16" points="818.9,811.3 830.6,811.3 836.4,801.2 830.6,791.1 818.9,791.1 813.1,801.2 	"/>
	<polygon class="st15" points="684.2,836 705.1,836 715.5,817.9 705.1,799.8 684.2,799.8 673.7,817.9 	"/>
	<polygon class="st16" points="384.7,902.4 393.7,902.4 398.1,894.6 393.7,886.9 384.7,886.9 380.2,894.6 	"/>
	<polygon class="st15" points="614.7,804.3 623.8,804.3 628.4,796.4 623.8,788.6 614.7,788.6 610.2,796.4 	"/>
	<polygon class="st16" points="964.6,791.5 970.4,791.5 973.3,786.5 970.4,781.5 964.6,781.5 961.7,786.5 	"/>
</g>
</svg>
