<?xml version="1.0" encoding="utf-8"?>
<!-- Generator: Adobe Illustrator 15.0.2, SVG Export Plug-In . SVG Version: 6.00 Build 0)  -->
<!DOCTYPE svg PUBLIC "-//W3C//DTD SVG 1.1//EN" "http://www.w3.org/Graphics/SVG/1.1/DTD/svg11.dtd">
<svg version="1.1" xmlns="http://www.w3.org/2000/svg" xmlns:xlink="http://www.w3.org/1999/xlink" x="0px" y="0px"
	 width="1190.55px" height="1683.781px" viewBox="0 0 1190.55 1683.781" enable-background="new 0 0 1190.55 1683.781"
	 xml:space="preserve">
<g id="Calque_2_3_">
	<linearGradient id="SVGID_1_" gradientUnits="userSpaceOnUse" x1="595.2749" y1="0" x2="595.2748" y2="984.2559">
		<stop  offset="0.097" style="stop-color:#000000;stop-opacity:0.84"/>
		<stop  offset="0.4182" style="stop-color:#000000;stop-opacity:0.79"/>
		<stop  offset="0.464" style="stop-color:#090909;stop-opacity:0.7875"/>
		<stop  offset="0.5387" style="stop-color:#212121;stop-opacity:0.7833"/>
		<stop  offset="0.6331" style="stop-color:#494949;stop-opacity:0.778"/>
		<stop  offset="0.7435" style="stop-color:#808080;stop-opacity:0.7719"/>
		<stop  offset="0.8658" style="stop-color:#C6C6C6;stop-opacity:0.7651"/>
		<stop  offset="0.9576" style="stop-color:#FFFFFF;stop-opacity:0.76"/>
	</linearGradient>
	<rect fill="url(#SVGID_1_)" width="1190.55" height="984.255"/>
</g>
<g id="Calque_1">
	<g id="Calque_2">
		<g>
			<path fill="#575756" d="M701.658,998.732c-0.699-3.256-8.488-3.953-9.65-4.07c-13.254-1.279-17.904,9.068-29.299,6.859
				c-3.721-0.697-5.813-2.209-10.23-1.744c-4.768,0.582-8.838,3.256-9.65,3.838c-3.488,2.441-4.07,4.301-6.395,4.418
				c-2.441,0.115-4.535-1.861-6.162-3.256c-1.396-1.279-1.629-1.977-3.838-4.65c-2.324-2.906-3.021-3.371-4.418-5.115
				c-3.139-3.838-3.254-5.93-5.463-9.65c-2.094-3.488-7.326-10.93-10.232-10.23c-5.348,1.395,1.047,29.531-5.813,31.973
				c-6.279,2.324-15.929-19.068-26.742-16.859c-5.231,1.047-4.65,8.371-13.37,12.207c-3.721,1.629-7.558,2.094-11.626,2.676
				c-4.535,0.58-6.046,0.232-11.046,0.58c-0.465,0-6.627,0.465-13.486,1.977c-4.883,1.047-11.626,3.023-19.532,6.744
				c-0.465,0.232-1.047,0.465-1.744,0.93c-8.72,4.65-9.999,8.254-14.649,11.975c-1.396,1.164-3.488,2.559-6.395,3.721
				c-3.488,1.396-6.627,1.744-9.068,1.977c-3.372,0.35-3.953,0-7.79,0.35c-1.86,0.232-3.604,0.465-5.581,0.93
				c-5.464,1.512-9.301,4.418-11.045,5.813c-2.906,2.441-2.441,2.908-5.464,5.35c-0.814,0.697-3.604,2.789-7.558,4.418
				c-4.302,1.859-4.302,0.697-10.813,2.906c-1.047,0.348-1.396,0.465-10.464,3.953c-4.767,1.744-4.65,1.744-4.767,1.744
				c-7.093,3.488-7.325,6.51-14.766,9.648c-3.023,1.279-9.186,3.953-17.091,2.676c-2.209-0.35-7.441-1.396-12.557-5.232
				c-8.371-6.395-5.581-13.139-14.301-22.672c-0.465-0.465-1.628-1.279-2.674-2.209c-3.604-3.023-6.278-5-9.186-7.324
				c-11.51-9.068-12.091-9.301-13.37-9.883c-3.721-1.627-5.581-1.744-9.301-4.07c-3.604-2.324-5.813-4.883-6.977-6.395
				c-6.859-8.486-3.371-13.254-8.487-20.229c-4.767-6.512-13.138-9.418-21.625-12.324c-5.581-1.977-7.79-1.977-11.161-4.65
				c-5.813-4.65-5-9.186-9.417-11.162c-2.558-1.162-4.186-0.232-16.51,3.836c-14.068,4.535-14.766,4.303-17.556,6.279
				c-6.627,4.418-6.045,7.674-11.626,9.883c-6.859,2.674-13.603,0.232-15.23-0.35c-7.906-2.791-13.603-9.766-14.766-11.162
				c-1.744-2.092-3.023-4.301-6.162-6.045c-0.814-0.465-3.836-2.092-7.673-2.209c-3.721-0.117-5.348,1.279-15.696,6.512
				c-4.186,2.092-6.395,3.254-9.185,4.301c-1.744,0.697-5.464,2.209-10.58,3.488c-11.743,3.139-13.37,1.047-24.066,3.953
				c-5.813,0.93-11.162,3.256-14.068,4.418c-4.767,1.977-7.208,3.023-9.417,4.418c-2.558,1.627-4.185,2.906-7.441,4.068
				c-2.441,0.814-3.836,0.814-5.464,1.164c-0.116,0-0.349,0.115-0.465,0.115s-0.349,0-0.465,0l0.116,0.117
				c-4.534,1.045-11.394,4.301-12.44,9.533c-1.046,5.348,4.302,11.742,9.65,13.604c4.069,1.395,8.487,0.348,9.301,2.324
				c0.349,0.93-0.465,1.279-0.698,3.139c-0.349,2.676,1.046,3.953,1.977,7.326c0.465,1.627,0.465,3.021,0.581,5.697
				c0.233,9.881-1.744,18.717-0.581,25.346c1.627,8.719,7.673,6.975,13.603,17.787c8.254,15.23-1.279,23.137,7.325,36.391
				c5.348,8.139,11.859,9.535,13.138,18.254c0.814,4.883-0.582,9.068,2.325,11.627c3.372,3.023,8.953,0.93,9.65,2.674
				c0.582,1.744-5.348,3.371-6.511,7.441c-0.697,2.209-0.465,6.742,21.276,25.229c1.512,1.279,9.417,8.023,20.114,16.162
				c9.534,7.324,9.883,6.975,14.301,10.928c6.046,5.348,7.441,7.674,11.975,9.65c2.558,1.162,6.395,1.512,13.952,2.326
				c10.115,1.045,15.231,1.51,18.603,0.813c6.162-1.395,7.325-3.836,12.44-3.488c3.372,0.232,4.65,1.396,9.65,3.488
				c5,2.094,11.162,3.838,15.114,4.303c8.487,0.93,12.208-3.953,20.579-6.977c12.789-4.65,17.207,1.977,39.878,2.674
				c14.417,0.465,24.648,0.814,35.693-4.998c9.534-5.117,24.066-17.324,23.602-31.043c-0.232-6.279-3.604-13.139-0.581-15.23
				c0.697-0.582,1.512-0.465,5.231,0.115c11.278,1.744,12.789,2.326,15.464,1.512c2.906-0.814,5.231-2.791,6.627-3.836
				c2.209-1.861,2.674-2.791,3.837-3.838c5.813-5.232,18.021-0.58,18.253-1.512c0.232-0.697-7.092-2.906-6.976-3.486
				c0.116-0.582,9.417,1.977,20.113,2.324c8.953,0.232,15.813-1.279,20.579-2.324c12.44-2.791,20.812-7.326,27.09-10.814
				c0,0,8.836-5.463,13.603-11.625c2.209-3.023,3.837-6.162,3.837-6.162c1.163-2.209,1.163-2.791,1.512-3.488
				c3.604-6.045,21.857-0.93,22.904-3.836c0.581-1.861-6.278-4.535-5.813-7.326c0.116-0.58,0.814-2.674,12.789-4.418
				c7.325-1.045,13.952-1.277,19.766-1.395c12.091-0.232,14.998,0.232,16.276-1.977c1.86-3.256-3.371-7.324-2.325-15.463
				c0.349-2.906,1.279-4.883,2.325-6.977c3.721-7.789,9.883-12.672,14.301-15.463c4.883-4.65,9.185-8.604,12.44-11.627
				c18.604-17.322,22.207-20.23,27.555-20.113c6.512,0,10.465,4.303,15.115,1.512c2.789-1.744,2.674-4.07,6.162-6.627
				c3.488-2.441,6.395-2.094,10.463-2.674c10.232-1.629,18.371-8.371,17.789-10.115s-9.998,1.162-18.604-2.674
				c-4.068-1.861-4.883-3.721-4.998-4.768c0-0.232-0.232-1.512,0.348-2.674c0.35-0.582,1.396-2.094,7.326-2.326
				c3.953-0.115,6.975,0.35,6.975,0.35s7.906,1.512,15.463,1.162C692.123,1011.404,702.703,1002.917,701.658,998.732z"/>
			<path fill="none" d="M1099.863,805.267c1.512-1.162,2.791-1.86,4.186-2.558C1102.654,803.406,1101.259,804.104,1099.863,805.267
				c-5.58,4.069-5.697,7.093-12.904,18.138c-0.117,0.116-0.117,0.232-0.232,0.349c0.115-0.116,0.232-0.232,0.348-0.349
				C1094.166,816.195,1092.074,811.313,1099.863,805.267z"/>
			<path fill="none" d="M1115.443,798.407c-0.93,0.349-1.859,0.813-2.906,1.163c-0.93,0.349-1.744,0.697-2.559,0.93
				c0.814-0.232,1.744-0.581,2.674-0.93C1113.466,799.221,1114.513,798.872,1115.443,798.407z"/>
			<path fill="#878787" d="M1.046,917.695c10.348,10.23,15.928,6.627,26.16,16.975c5.232,5.232,8.487,10.813,9.882,13.486
				c2.558,4.883,2.907,7.092,6.395,15.463c0.465,1.164,2.441,5.582,6.627,14.301c5.93,12.441,7.79,16.51,12.79,21.742
				c3.372,3.488,6.278,5.465,7.557,6.395c0.116,0.115,0.349,0.232,0.465,0.465c0.698,0.115,1.511,0.115,2.791,0.232
				c10.115,1.627,12.324,6.512,17.439,6.279c5.581-0.234,5.464-6.396,11.976-8.139c7.673-2.094,10.929,5.695,19.765,5.813
				c10.115,0.115,11.278-9.766,26.741-15.928c4.418-1.744,13.952-5.582,24.764-3.141s13.371,8.953,26.741,10.813
				c2.325,0.35,6.744,0.932,12.44,0c7.557-1.162,8.139-3.486,18.603-6.627c9.185-2.674,8.604-0.93,15.928-3.486
				c3.255-1.164,5.929-2.326,9.301-1.512c1.744,0.465,2.441,1.162,6.162,2.674c2.558,1.047,4.069,1.395,5.813,1.977
				c4.534,1.512,8.487,3.604,16.277,7.789c2.674,1.512,4.302,2.441,6.976,3.139c3.72,0.932,4.418,0.232,5.464,1.164
				c3.022,2.557-1.86,8.719,0.813,15.463c0.931,2.441,2.675,4.068,6.162,7.324c1.396,1.279,3.604,3.139,8.487,6.162
				c7.558,4.535,8.371,3.721,11.627,6.162c7.905,5.813,6.511,13.836,11.975,15.115c4.186,0.93,8.255-2.791,9.302-1.512
				c0.813,1.045-2.093,3.254-1.977,7.324c0.116,2.674,1.396,4.65,1.977,5.465c2.325,3.371,5.813,4.533,7.324,4.998
				c1.977,0.699,3.023,0.582,4.302,0.814c6.395,1.162,8.139,8.139,12.789,11.627c2.093,1.512,5.813,3.256,21.276,0
				c22.091-4.768,20.347-9.533,31.74-10.115c3.023-0.117,14.417,1.162,37.205,4.65c2.441,0.35,7.674,1.162,8.72-0.93
				c2.093-3.953-12.324-14.766-11.045-16.51c1.512-1.977,20.229,10.23,22.556,7.324c1.395-1.744-4.651-6.859-2.675-11.627
				c1.628-3.953,6.162-5.813,6.977-6.162c9.766-3.604,19.648,5.232,22.09,2.326c2.093-2.326-4.186-8.254-1.512-13.604
				c0.931-1.977,2.907-3.021,6.162-4.998c2.791-1.744,5.232-2.559,8.487-3.488c13.487-4.07,20.23-6.047,24.067-4.303
				c1.977,0.814,3.604,2.209,4.999,1.512c1.977-1.162,0.232-5,2.674-7.789c2.093-2.326,5.813-2.559,8.953-2.674
				c3.952-0.117,5.464,0.813,8.138-0.35c2.325-1.047,3.14-2.674,3.837-2.324c1.396,0.697-2.558,7.092,0,11.277
				c1.396,2.324,4.883,3.604,6.162,2.674c2.325-1.744-2.674-10.813-0.813-11.977c1.162-0.697,3.487,2.559,7.324,4.652
				c6.743,3.719,17.208,3.486,21.741-1.164c6.861-6.975-1.045-22.787,1.977-23.949c2.908-1.164,7.791,15.346,23.254,22.787
				c1.395,0.582,2.906,1.162,5,1.744c3.139-4.65,3.719-9.766,8.836-11.51c0.813-0.232,3.254-0.117,8.139,0
				c8.254,0.232,9.648,0.813,13.137,0.348c1.279-0.115,3.838-0.465,9.766-2.789c5.117-1.977,11.395-4.768,19.186-9.535
				c5.463-3.371,14.416-8.836,18.951-14.881c2.441-3.256,3.836-5.465,3.836-5.465c2.324-3.488,2.441-4.535,3.836-6.045
				c2.441-2.676,5.465-3.721,7.209-4.303c4.418-1.395,5.58-0.115,13.254-1.047c0.93-0.115,3.721-0.465,7.324-1.277
				c5.232-1.164,7.441-2.209,11.395-2.094c2.094,0,3.721,0.35,4.65,0.582c8.371,1.744,11.395,6.51,14.533,4.998
				c1.395-0.697,2.094-2.209,2.559-3.139c0.93-1.977,0.465-3.371,1.744-5.697c0,0,0.58-1.045,1.627-2.324
				c2.791-3.256,16.51-5.465,30.811,1.395c5.232,2.441,8.951,5.465,15.346,10.465c6.861,5.348,6.395,6.045,10.93,9.301
				c2.209,1.627,10.465,7.207,22.555,9.998c7.094,1.627,13.488,3.256,20.928,1.162c5-1.395,8.604-3.371,8.604-3.371
				c5.465-2.906,7.209-5.58,11.279-5.58c2.789-0.117,4.883,1.045,5.813,1.512c3.371,1.859,5.115,4.766,5.813,6.045
				c1.164,1.977,6.162,8.021,16.045,19.998c4.303,5.23,6.627,7.906,10.232,11.51c5.115,5,5.813,4.65,8.486,8.021
				c3.836,4.768,3.256,6.512,8.139,12.789c2.209,2.791,2.674,3.023,4.883,6.047c3.256,4.533,4.883,6.859,5.232,7.789
				c0.115,0.117,0.232,0.697,0.814,1.162c0.93,0.814,2.324,0.814,2.557,0.814c0.465,0,1.744-0.232,3.488-2.324
				c2.559-3.141,3.256-7.094,3.488-9.303c4.998-27.205,5.58-31.74,5.58-31.74c1.395-10.463,2.441-15.928,3.721-15.928
				c1.162,0,2.209,4.07,2.559,5.232c0.697,2.559,0.697,4.768,0.58,6.162c1.164,5.465,1.744,9.998,2.094,13.021
				c0.813,6.51,0.465,7.209,1.395,13.254c0.93,6.279,1.512,6.627,1.977,11.742c0.35,4.07,0.117,5.232,0.814,8.836
				c0.58,3.256,1.395,5.814,2.092,7.906c0.117,0.582,0.814,2.209,1.977,5.465c0,0,0.814,1.861,1.744,3.488
				c0.465,0.93,1.977,2.324,4.303,3.836c3.371-1.977,6.395-4.301,8.951-7.439c1.629-1.861,4.07-5.232,8.139-18.021
				c7.092-21.975,4.768-27.787,11.045-32.555c6.859-5.348,13.139-0.814,17.439-6.395c4.885-6.395-1.627-14.301,4.07-22.672
				c2.441-3.604,4.068-2.557,9.301-8.139c5.465-5.813,5.232-8.486,8.953-13.021c7.324-9.068,13.137-5.115,21.508-13.369
				c0.117-0.117,0.117-0.234,0.232-0.35c7.209-11.045,7.326-14.068,12.789-18.137c1.512-1.164,2.908-1.861,4.303-2.559
				c1.744-0.814,3.604-1.395,6.045-2.209c0.814-0.232,1.629-0.582,2.559-0.93c1.047-0.35,1.977-0.814,2.906-1.162
				c3.371-1.512,7.557-3.838,13.254-7.209c2.326-1.396,5-3.023,8.371-5c3.838-2.324,7.674-4.533,11.395-6.742
				c10.695-6.512,10.463-6.744,19.416-11.859c2.559-1.512,5-2.791,7.557-4.303v-4.301h-0.115c-3.605-1.047-3.721-2.906-6.047-3.373
				c-5.23-1.045-7.906,7.906-15.578,8.838c-3.953,0.465-4.418-1.744-9.068-1.977c-6.744-0.35-11.047,4.186-17.441,8.719
				c-8.604,6.047-15.695,11.162-23.834,11.627c-12.557,0.697-14.416-10.348-32.553-12.209c-3.605-0.348-7.674-0.348-13.371-2.324
				c-5.115-1.744-8.604-4.07-12.789-6.977c-11.51-7.789-13.254-12.672-18.604-12.207c-3.486,0.348-4.068,2.441-9.301,2.906
				c-2.557,0.232-4.883-0.115-8.719-1.162c-8.488-2.326-10.58-4.418-13.953-5.232c-11.857-2.791-18.137,16.393-35.459,18.021
				c-9.303,0.93-8.953-4.535-19.186-4.07c-17.555,0.814-22.555,16.975-36.041,15.115c-9.068-1.162-9.766-9.068-18.719-8.953
				c-6.51,0-7.789,4.186-21.393,12.441c-4.768,2.906-2.559,1.162-23.137,11.393c-13.139,6.512-15.58,7.906-21.043,8.953
				c-4.535,0.814-11.047,1.977-18.021-0.582c-9.533-3.604-9.301-10.348-16.395-12.439c-7.904-2.326-11.51,5-28.367,12.439
				c-18.021,8.023-21.51,2.908-36.623,11.627c-4.885,2.791-8.838,5.814-17.441,9.883c-11.625,5.465-16.043,5.348-19.184,4.65
				c-3.604-0.814-3.953-2.209-11.045-5.813c-6.045-3.141-10.348-4.535-13.951-5.814c-12.906-4.65-19.998-9.533-45.344-20.928
				c-23.602-10.58-23.252-8.836-36.042-15.695c-15.929-8.486-16.277-10.813-22.09-11.045c-8.953-0.348-12.324,5.232-42.204,26.275
				c-10.115,7.209-14.766,10.115-21.742,11.512c-8.021,1.627-14.766,0.465-23.834-1.164c-12.789-2.209-22.439-6.045-26.159-7.557
				c-10.231-4.186-22.207-9.186-34.88-18.021c-3.487-2.441-8.604-6.277-15.114-5.813c-5.465,0.348-6.511,3.371-10.464,3.488
				c-9.883,0.348-11.277-18.486-23.834-23.834c-15.114-6.395-30.462,13.369-41.739,5.695c-6.743-4.533-5.348-14.301-14.998-18.369
				c-3.372-1.512-6.162-1.279-8.952-4.186c-3.953-3.953-2.441-8.021-5.813-9.883c-3.255-1.744-5.464,1.396-11.626,0
				c-3.837-0.814-3.72-2.209-6.395-2.324c-4.302-0.117-5.93,3.371-11.626,5.813c-3.837,1.627-5.116,0.814-9.301,1.744
				c-2.325,0.465-6.859,1.859-27.322,18.021c-3.72,2.906-5.813,4.65-8.371,4.186c-4.767-0.932-5.232-8.836-9.65-9.418
				c-2.79-0.35-3.255,2.559-9.301,5.813c-6.046,3.141-7.558,1.279-10.929,4.303c-3.255,2.906-3.255,5.813-6.743,7.324
				c-1.977,0.814-3.721,0.582-5,0.465c-6.743-0.232-10.696,4.768-21.509,11.162c-7.092,4.186-10.696,6.395-15.696,7.324
				c-9.185,1.859-16.975-1.279-20.346-2.674c-21.974-8.721-14.766,0.232-77.897-20.928C29.996,880.142,17.439,875.957,0,868.748
				v47.9C0.349,916.998,0.698,917.345,1.046,917.695z"/>
			<path fill="#3C3C3B" d="M1009.06,1065.001c-0.93-1.627-1.744-3.488-1.744-3.488c-1.162-3.254-1.859-4.883-1.977-5.463
				c-0.697-2.094-1.51-4.65-2.092-7.906c-0.697-3.605-0.465-4.768-0.814-8.836c-0.465-5.117-1.047-5.465-1.977-11.744
				c-0.93-6.045-0.58-6.742-1.395-13.254c-0.35-3.021-0.93-7.557-2.094-13.021c0.117-1.395,0.117-3.604-0.58-6.162
				c-0.35-1.162-1.396-5.23-2.559-5.23c-1.279,0-2.324,5.463-3.721,15.928c0,0-0.58,4.533-5.58,31.74
				c-0.232,2.209-0.93,6.162-3.488,9.301c-1.744,2.092-3.023,2.326-3.488,2.326c-0.232,0-1.627,0-2.557-0.814
				c-0.582-0.465-0.697-1.047-0.814-1.162c-0.35-0.932-1.977-3.256-5.232-7.791c-2.209-3.021-2.674-3.256-4.883-6.045
				c-4.883-6.279-4.301-8.023-8.139-12.789c-2.674-3.373-3.371-3.023-8.486-8.023c-3.605-3.604-5.93-6.277-10.232-11.51
				c-9.883-11.975-14.881-18.021-16.043-19.998c-0.699-1.277-2.443-4.186-5.814-6.045c-0.93-0.465-3.023-1.627-5.813-1.512
				c-4.07,0-5.814,2.674-11.277,5.58c0,0-3.605,1.977-8.604,3.373c-7.441,2.092-13.836,0.465-20.928-1.164
				c-12.092-2.789-20.348-8.371-22.557-9.998c-4.533-3.256-4.068-3.953-10.928-9.301c-6.395-5-10.115-8.023-15.348-10.465
				c-14.301-6.859-28.02-4.65-30.811-1.395c-1.047,1.279-1.627,2.326-1.627,2.326c-1.279,2.324-0.814,3.719-1.744,5.695
				c-0.465,0.932-1.162,2.443-2.559,3.141c-3.139,1.512-6.162-3.256-14.533-5c-0.93-0.232-2.557-0.582-4.65-0.582
				c-3.953-0.115-6.162,0.932-11.393,2.094c-3.605,0.814-6.395,1.162-7.326,1.279c-7.672,0.93-8.836-0.35-13.254,1.045
				c-1.744,0.582-4.766,1.629-7.207,4.303c-1.396,1.512-1.512,2.559-3.838,6.045c0,0-1.395,2.209-3.836,5.465
				c-4.535,6.047-13.486,11.51-18.951,14.883c-7.791,4.766-14.068,7.557-19.184,9.533c-5.93,2.326-8.488,2.674-9.768,2.791
				c-3.486,0.465-4.883-0.117-13.137-0.35c-4.883-0.115-7.324-0.232-8.139,0c-5.115,1.744-5.697,6.859-8.836,11.51
				c-0.697,1.047-1.629,2.094-2.674,3.023c-5.814,5-11.627,2.209-21.277,4.303c-4.186,0.93-11.277,3.254-25.461,16.508
				c-33.252,31.275-41.507,63.133-59.761,62.668c-4.534-0.117-9.533-2.674-14.766,0.348c-4.999,2.908-6.976,8.836-7.905,13.254
				c-1.744,1.279-4.302,3.373-7.558,5.814c-18.486,14.184-23.834,17.672-29.415,20.928c-0.697,0.465-5.115,3.371-9.533,4.998
				c-23.835,8.605-35.577-2.209-51.622,6.977c-9.533,5.465-9.068,11.045-17.556,12.441c-8.836,1.395-15.463-3.953-21.857,0
				c-3.372,2.092-4.65,5.348-5.581,7.557c-6.511,14.533-26.392,27.67-43.366,31.391c-13.72,2.906-13.604-4.186-29.415-0.813
				c-10.231,2.209-18.951,7.092-30.578,6.859c-5.813-0.117-11.277-1.279-11.277-1.279c-5-1.047-8.022-2.441-10.231-3.139
				c-3.023-1.047-8.604-1.047-19.067-0.582c1.163,0,2.441,0,4.069,0.117c13.603,0.813,18.835,3.953,32.089,5.348
				c3.837,0.465,9.883,0.814,26.509-0.465c17.207-1.279,41.273-3.256,74.177-11.277c26.508-6.512,23.95-8.488,40.344-10.93
				c19.3-2.906,27.903-1.047,47.552-6.512c8.371-2.324,15.464-4.301,24.532-8.836c13.952-6.975,19.3-13.486,32.321-15.578
				c6.162-1.047,10.813-0.582,14.882-0.117c14.882,1.512,26.044,7.441,42.902,17.439c20.346,12.209,21.974,14.418,31.391,19.766
				c9.767,5.58,38.134,21.508,73.48,22.555c7.441,0.232,22.672-2.092,53.016-6.742c13.486-2.094,23.602-3.838,38.6-6.627
				c24.881-4.418,37.67-6.744,50.227-9.883c18.719-4.65,28.137-6.859,38.717-11.51c24.648-10.814,23.834-18.371,40.693-22.672
				c23.949-6.162,33.6,6.859,44.762-1.744c8.604-6.627,10.348-21.857,13.951-52.32c1.977-16.975,0.814-19.184,4.068-22.67
				c9.65-10.465,27.207,0.465,55.809-9.883c2.209-0.814,4.301-1.744,6.277-2.674c0.93-0.467,1.861-0.932,2.674-1.512
				C1011.037,1067.328,1009.525,1065.931,1009.06,1065.001z"/>
			<path fill="#3C3C3B" d="M164.515,1185.917c-27.322-29.648-29.88-33.717-32.322-38.949c-2.441-5.348-2.791-7.324-9.301-22.322
				c-4.883-11.162-6.162-12.674-8.836-19.533c-4.418-11.393-4.534-15.811-7.673-25.811c-4.535-14.416-6.86-13.836-13.254-29.996
				c-5.813-14.533-16.626-47.553-22.207-53.016c-0.116-0.117-0.349-0.35-0.465-0.467c-1.279-0.93-4.186-2.906-7.557-6.395
				c-5-5.23-6.86-9.301-12.79-21.74c-4.186-8.721-6.162-13.139-6.627-14.301c-3.488-8.371-3.836-10.58-6.395-15.463
				c-1.395-2.674-4.65-8.256-9.882-13.486c-10.231-10.348-15.812-6.744-26.16-16.975c-0.349-0.35-0.698-0.699-1.046-1.047v18.021
				v241.83c12.208,4.186,22.788,5.93,30.345,6.975c29.764,3.721,48.947-0.232,76.153,3.953c8.487,1.279,17.323,3.256,22.555,10.232
				c2.325,3.139,2.558,5.58,6.511,9.533c4.767,4.883,11.743,8.836,11.743,8.836c15.696,0.814,27.555,0.814,27.555,0.814
				s4.651,0,12.092-0.232C182.303,1204.869,178.35,1200.916,164.515,1185.917z"/>
			<path d="M204.161,1082.093c-1.163,0-2.325,0.115-3.488,0.115C201.835,1082.208,202.998,1082.093,204.161,1082.093z"/>
			<path d="M1104.048,802.709c1.744-0.813,3.605-1.396,6.047-2.209C1107.537,801.313,1105.792,801.896,1104.048,802.709z"/>
			<path d="M1058.007,1013.613c-19.416,412.973,73.48,163.004,67.666-26.393C1121.14,986.175,1058.007,1013.38,1058.007,1013.613z"
				/>
			<path d="M1163.576,895.953c-1.045,0.697-2.324,1.396-3.604,2.209c-6.512,3.838-11.742,7.092-16.16,9.535
				c-5.35,3.254-8.721,5.23-13.254,7.207c-1.047,0.465-1.977,0.814-2.791,1.164c-0.93,0.348-1.861,0.697-2.674,0.93
				c-2.441,0.813-4.303,1.395-6.047,2.209c-1.395,0.58-2.674,1.395-4.186,2.557c-7.789,6.047-5.697,10.93-12.789,18.139
				c-0.115,0.115-0.232,0.232-0.348,0.348c-8.371,8.256-14.186,4.303-21.51,13.371c-3.721,4.533-3.488,7.209-8.953,13.021
				c-5.23,5.58-6.859,4.535-9.301,8.139c-5.697,8.371,0.814,16.277-4.068,22.672c-4.303,5.58-10.58,1.047-17.439,6.395
				c-6.279,4.766-3.953,10.58-11.045,32.555c-4.07,12.789-6.512,16.16-8.139,18.02c-2.674,3.141-5.582,5.582-8.953,7.441
				c-0.93,0.465-1.744,1.047-2.674,1.512c-1.977,0.93-4.07,1.859-6.279,2.674c-28.6,10.348-46.156-0.582-55.807,9.883
				c-3.256,3.488-2.092,5.697-4.068,22.672c-3.605,30.461-5.348,45.691-13.953,52.318c-11.16,8.604-20.811-4.418-44.762,1.744
				c-16.857,4.303-16.043,11.859-40.691,22.672c-10.58,4.65-19.998,6.859-38.717,11.51c-12.557,3.139-25.346,5.465-50.227,9.883
				c-14.998,2.791-25.113,4.535-38.6,6.627c-30.346,4.65-45.576,6.977-53.016,6.744c-35.346-1.047-63.713-16.975-73.48-22.557
				c-9.418-5.348-11.045-7.557-31.392-19.764c-16.858-10-28.02-15.93-42.901-17.441c-4.069-0.465-8.72-0.93-14.882,0.117
				c-13.021,2.092-18.37,8.604-32.321,15.58c-9.069,4.533-16.161,6.51-24.532,8.836c-19.648,5.465-28.252,3.604-47.553,6.51
				c-16.393,2.441-13.835,4.418-40.344,10.93c-32.902,8.021-56.97,9.998-74.177,11.277c-16.625,1.279-22.671,0.93-26.508,0.465
				c-13.254-1.395-18.486-4.533-32.089-5.348c-1.627-0.117-2.907-0.117-4.069-0.117s-2.325,0.117-3.488,0.117
				c-1.628,0.115-3.604,0.348-6.395,0.582c-1.279,0-3.604,0.232-8.139,0.465c-1.046,0.115-2.093,0.115-3.139,0.232
				c-0.814,0.232-4.65,1.395-8.022,1.047c-0.465,0-1.046-0.117-1.046-0.117c-0.698-0.117-1.396-0.232-1.977-0.465
				c-7.441,0.232-12.092,0.232-12.092,0.232s-11.859,0-27.555-0.814c0,0-6.976-3.953-11.743-8.836
				c-3.953-3.953-4.186-6.395-6.511-9.533c-5.232-6.977-14.068-8.953-22.555-10.232c-27.206-4.184-46.39-0.232-76.153-3.951
				c-7.557-0.932-18.137-2.676-30.345-6.977v28.02v100.336h1190.549v-408.32C1184.388,884.21,1174.505,889.675,1163.576,895.953z
				 M1065.101,1026.634c-0.117-0.232,6.627-4.65,11.16-3.604C1070.216,1025.24,1065.216,1026.867,1065.101,1026.634z"/>
		</g>
	</g>
	<g id="Calque_3">
		<g id="Calque_1_1_" opacity="0.88">
			<polygon fill="none" stroke="#D65DB1" stroke-miterlimit="10" points="490.869,1343.921 496.566,1326.365 514.354,1322.644 
				526.446,1336.363 520.865,1353.804 502.961,1357.64 			"/>
			<polygon fill="none" stroke="#845EC2" stroke-miterlimit="10" points="445.643,1285.324 443.201,1263.931 460.292,1251.142 
				479.824,1259.746 482.149,1281.021 465.059,1293.81 			"/>
			<polygon fill="none" stroke="#FF9671" stroke-miterlimit="10" points="389.254,1310.785 396.229,1337.527 376.93,1357.058 
				350.538,1349.966 343.562,1323.226 362.746,1303.693 			"/>
			<polygon fill="none" stroke="#D65DB1" stroke-miterlimit="10" points="614.923,1288.23 612.714,1308.693 594.112,1316.947 
				577.719,1304.855 579.928,1284.394 598.531,1276.138 			"/>
			<polygon fill="none" stroke="#D65DB1" stroke-miterlimit="10" points="784.089,1317.529 788.39,1280.091 822.572,1265.093 
				852.453,1287.533 848.267,1324.97 814.085,1339.968 			"/>
			<polygon fill="none" stroke="#D65DB1" stroke-miterlimit="10" points="726.189,1288.23 731.421,1307.763 717.353,1322.064 
				698.052,1316.832 692.822,1297.416 706.888,1283.115 			"/>
			<polygon fill="none" stroke="#FF9671" stroke-miterlimit="10" points="288.22,1296.601 276.128,1269.628 293.219,1245.56 
				322.401,1248.468 334.377,1275.441 317.286,1299.507 			"/>
			<polygon fill="none" stroke="#FAEDED" stroke-miterlimit="10" points="1480.048,1016.054 1456.564,1008.265 1451.679,984.314 
				1470.283,968.154 1493.767,975.943 1498.652,1000.009 			"/>
			<polygon fill="none" stroke="#FAEDED" stroke-miterlimit="10" points="1480.746,1108.019 1463.306,1080.464 1478.654,1051.748 
				1511.556,1050.468 1529.113,1078.023 1513.765,1106.742 			"/>
			<polygon fill="none" stroke="#FAEDED" stroke-miterlimit="10" points="1487.257,1194.404 1473.539,1200.451 1461.33,1191.615 
				1462.958,1176.849 1476.792,1170.802 1488.884,1179.638 			"/>
			<polygon fill="none" stroke="#FAEDED" stroke-miterlimit="10" points="1450.052,1320.32 1449.005,1291.021 1474.119,1275.558 
				1500.279,1289.277 1501.326,1318.458 1476.212,1334.039 			"/>
			<polygon fill="none" stroke="#FAEDED" stroke-miterlimit="10" points="1507.488,1433.445 1485.396,1441.119 1467.492,1425.888 
				1471.91,1403.099 1494.117,1395.425 1511.906,1410.656 			"/>
			<polygon fill="none" stroke="#FAEDED" stroke-miterlimit="10" points="1428.195,1527.037 1411.685,1494.599 1431.916,1464.138 
				1468.654,1466.347 1485.164,1498.785 1464.935,1529.13 			"/>
			<polygon fill="none" stroke="#FAEDED" stroke-miterlimit="10" points="1554.458,1651.789 1497.605,1667.486 1455.632,1626.677 
				1470.283,1570.171 1527.019,1554.593 1569.107,1595.402 			"/>
			<polygon fill="none" stroke="#FAEDED" stroke-miterlimit="10" points="1512.371,1147.201 1497.255,1157.083 1481.095,1149.062 
				1480.048,1131.273 1495.164,1121.39 1511.324,1129.412 			"/>
			<polygon fill="none" stroke="#D65DB1" stroke-miterlimit="10" points="654.22,1346.13 659.685,1360.546 650.035,1372.638 
				634.921,1370.197 629.457,1355.781 639.107,1343.689 			"/>
		</g>
		<g id="Calque_2_1_" opacity="0.88">
			<ellipse fill="none" stroke="#FF9671" stroke-miterlimit="10" cx="365.188" cy="1283.115" rx="13.719" ry="13.836"/>
			<ellipse fill="none" stroke="#FF9671" stroke-miterlimit="10" cx="321.937" cy="1363.686" rx="43.251" ry="43.716"/>
			<ellipse fill="none" stroke="#D65DB1" stroke-miterlimit="10" cx="547.606" cy="1377.753" rx="13.952" ry="14.068"/>
			<ellipse fill="none" stroke="#FAEDED" stroke-miterlimit="10" cx="457.617" cy="1398.449" rx="8.953" ry="9.068"/>
			<ellipse fill="none" stroke="#D65DB1" stroke-miterlimit="10" cx="866.056" cy="1390.194" rx="31.273" ry="31.624"/>
			<ellipse fill="none" stroke="#D65DB1" stroke-miterlimit="10" cx="760.835" cy="1393.45" rx="13.719" ry="13.835"/>
			<ellipse fill="none" stroke="#FAEDED" stroke-miterlimit="10" cx="1366.226" cy="1390.891" rx="16.625" ry="16.394"/>
			<ellipse fill="none" stroke="#FAEDED" stroke-miterlimit="10" cx="1472.259" cy="1214.169" rx="10.115" ry="9.998"/>
			<ellipse fill="none" stroke="#FAEDED" stroke-miterlimit="10" cx="1367.388" cy="1045.818" rx="49.297" ry="48.715"/>
			<ellipse fill="none" stroke="#FAEDED" stroke-miterlimit="10" cx="1499.929" cy="1001.056" rx="20.813" ry="20.463"/>
			<ellipse fill="none" stroke="#FAEDED" stroke-miterlimit="10" cx="1382.386" cy="1206.148" rx="14.998" ry="14.766"/>
		</g>
		
			<circle opacity="0.88" fill="none" stroke="#FF9671" stroke-miterlimit="10" enable-background="new    " cx="278.687" cy="1409.843" r="7.324"/>
		<polygon opacity="0.88" fill="none" stroke="#D65DB1" stroke-miterlimit="10" enable-background="new    " points="
			582.719,1407.634 576.557,1404.029 576.557,1396.822 582.719,1393.216 588.881,1396.822 588.881,1404.029 		"/>
		
			<ellipse opacity="0.88" fill="none" stroke="#D65DB1" stroke-miterlimit="10" enable-background="new    " cx="688.402" cy="1378.683" rx="6.047" ry="6.162"/>
		<polygon opacity="0.88" fill="none" stroke="#FF9671" stroke-miterlimit="10" enable-background="new    " points="
			74.991,1337.41 80.688,1353.687 69.526,1366.708 52.784,1363.453 47.204,1347.175 58.365,1334.154 		"/>
		<polygon opacity="0.88" fill="none" stroke="#FF9671" stroke-miterlimit="10" enable-background="new    " points="
			143.471,1395.425 119.636,1407.517 97.43,1392.636 99.058,1365.779 122.775,1353.687 144.982,1368.57 		"/>
		<polygon opacity="0.88" fill="none" stroke="#FF9671" stroke-miterlimit="10" enable-background="new    " points="
			234.622,1303.113 246.016,1344.619 216.252,1375.312 174.979,1364.617 163.584,1323.109 193.348,1292.416 		"/>
		<polygon opacity="0.88" fill="none" stroke="#FF9671" stroke-miterlimit="10" enable-background="new    " points="
			41.855,1337.294 45.111,1355.199 31.624,1367.058 14.649,1361.011 11.278,1343.224 24.881,1331.365 		"/>
		<polygon opacity="0.88" fill="none" stroke="#FF9671" stroke-miterlimit="10" enable-background="new    " points="
			1090.214,1303.113 1087.306,1276.603 1108.466,1260.792 1132.65,1271.373 1135.673,1297.88 1114.396,1313.808 		"/>
		<polygon opacity="0.88" fill="none" stroke="#FF9671" stroke-miterlimit="10" enable-background="new    " points="
			1020.105,1334.853 1028.826,1368.103 1004.875,1392.404 972.089,1383.451 963.251,1350.316 987.32,1326.015 		"/>
		<polygon opacity="0.88" fill="none" stroke="#845EC2" stroke-miterlimit="10" enable-background="new    " points="
			60.923,1208.822 58.249,1234.283 35.112,1244.515 14.766,1229.4 17.556,1204.054 40.692,1193.824 		"/>
		<polygon opacity="0.88" fill="none" stroke="#D65DB1" stroke-miterlimit="10" enable-background="new    " points="
			894.541,1317.179 879.542,1283.58 900.818,1253.699 936.976,1257.419 951.974,1290.904 930.814,1320.9 		"/>
		<polygon opacity="0.88" fill="none" stroke="#FF9671" stroke-miterlimit="10" enable-background="new    " points="
			109.87,1280.789 116.729,1298.81 104.638,1313.693 85.919,1310.669 79.06,1292.765 91.035,1277.767 		"/>
		
			<ellipse opacity="0.88" fill="none" stroke="#FF9671" stroke-miterlimit="10" enable-background="new    " cx="1000.574" cy="1247.886" rx="17.09" ry="17.207"/>
		
			<ellipse opacity="0.88" fill="none" stroke="#D65DB1" stroke-miterlimit="10" enable-background="new    " cx="946.859" cy="1348.107" rx="53.83" ry="54.412"/>
		
			<ellipse opacity="0.88" fill="none" stroke="#845EC2" stroke-miterlimit="10" enable-background="new    " cx="-12.324" cy="1267.651" rx="17.324" ry="17.556"/>
		
			<ellipse opacity="0.88" fill="none" stroke="#FF9671" stroke-miterlimit="10" enable-background="new    " cx="1115.443" cy="1391.241" rx="11.045" ry="11.161"/>
		
			<circle opacity="0.88" fill="none" stroke="#D65DB1" stroke-miterlimit="10" enable-background="new    " cx="893.029" cy="1405.541" r="9.068"/>
		<polygon opacity="0.88" fill="none" stroke="#FF9671" stroke-miterlimit="10" enable-background="new    " points="
			31.392,1304.74 23.718,1300.322 23.718,1291.253 31.392,1286.835 39.065,1291.253 39.065,1300.322 		"/>
		<polygon opacity="0.88" fill="none" stroke="#845EC2" stroke-miterlimit="10" enable-background="new    " points="
			938.488,1223.935 942.091,1235.794 933.72,1244.748 921.63,1241.724 918.025,1229.865 926.513,1220.914 		"/>
		<polygon opacity="0.88" fill="none" stroke="#845EC2" stroke-miterlimit="10" enable-background="new    " points="
			975.925,1196.962 969.646,1212.078 953.486,1214.169 943.371,1201.031 949.65,1185.917 965.81,1183.824 		"/>
		<polygon opacity="0.88" fill="none" stroke="#845EC2" stroke-miterlimit="10" enable-background="new    " points="
			1009.41,1169.291 1015.804,1173.244 1015.804,1180.685 1009.292,1184.289 1002.783,1180.453 1002.898,1172.896 		"/>
		<polygon opacity="0.88" fill="none" stroke="#845EC2" stroke-miterlimit="10" enable-background="new    " points="
			1071.728,1148.13 1060.101,1156.966 1046.382,1151.271 1044.521,1136.505 1056.148,1127.669 1069.751,1133.365 		"/>
		<polygon opacity="0.88" fill="none" stroke="#845EC2" stroke-miterlimit="10" enable-background="new    " points="
			1101.492,1091.859 1111.025,1098.718 1109.978,1110.345 1099.283,1115.228 1089.748,1108.369 1090.794,1096.626 		"/>
		<polygon opacity="0.88" fill="none" stroke="#845EC2" stroke-miterlimit="10" enable-background="new    " points="
			1162.763,1097.207 1154.16,1113.369 1135.906,1113.833 1126.138,1098.253 1134.626,1082.093 1152.996,1081.511 		"/>
		<polygon opacity="0.88" fill="none" stroke="#845EC2" stroke-miterlimit="10" enable-background="new    " points="
			1177.296,1009.427 1200.083,1028.146 1195.548,1057.212 1168.226,1067.443 1145.439,1048.724 1149.857,1019.66 		"/>
		<polygon opacity="0.88" fill="none" stroke="#845EC2" stroke-miterlimit="10" enable-background="new    " points="
			982.785,1172.664 991.273,1176.035 992.667,1184.988 985.691,1190.568 977.205,1187.197 975.808,1178.361 		"/>
		
			<ellipse transform="matrix(-0.5772 -0.8166 0.8166 -0.5772 825.4561 2751.2407)" opacity="0.88" fill="none" stroke="#845EC2" stroke-miterlimit="10" enable-background="new    " cx="1124.947" cy="1161.933" rx="8.371" ry="8.254"/>
		
			<ellipse transform="matrix(-0.5771 -0.8167 0.8167 -0.5771 656.2617 2679.3311)" opacity="0.88" fill="none" stroke="#845EC2" stroke-miterlimit="10" enable-background="new    " cx="1021.858" cy="1169.748" rx="5.116" ry="4.999"/>
		
			<ellipse transform="matrix(-0.5772 -0.8166 0.8166 -0.5772 520.7568 2792.3682)" opacity="0.88" fill="none" stroke="#FF9671" stroke-miterlimit="10" enable-background="new    " cx="983.241" cy="1261.375" rx="24.764" ry="24.415"/>
		
			<ellipse transform="matrix(-0.5772 -0.8166 0.8166 -0.5772 464.8449 2680.9341)" opacity="0.88" fill="none" stroke="#845EC2" stroke-miterlimit="10" enable-background="new    " cx="926.505" cy="1220.121" rx="10.464" ry="10.347"/>
		
			<ellipse transform="matrix(-0.5772 -0.8166 0.8166 -0.5772 660.2504 2759.5498)" opacity="0.88" fill="none" stroke="#845EC2" stroke-miterlimit="10" enable-background="new    " cx="1044.526" cy="1208.847" rx="7.558" ry="7.442"/>
		
			<circle opacity="0.88" fill="none" stroke="#845EC2" stroke-miterlimit="10" enable-background="new    " cx="115.567" cy="1219.75" r="10.929"/>
		
			<circle opacity="0.88" fill="none" stroke="#845EC2" stroke-miterlimit="10" enable-background="new    " cx="487.73" cy="1215.333" r="5.581"/>
		
			<circle opacity="0.88" fill="none" stroke="#D65DB1" stroke-miterlimit="10" enable-background="new    " cx="730.257" cy="1232.772" r="11.743"/>
		
			<circle opacity="0.88" fill="none" stroke="#845EC2" stroke-miterlimit="10" enable-background="new    " cx="216.369" cy="1239.166" r="6.395"/>
		<polygon opacity="0.88" fill="none" stroke="#845EC2" stroke-miterlimit="10" enable-background="new    " points="
			378.093,1230.214 361.699,1230.214 353.444,1244.515 361.699,1258.816 378.093,1258.816 386.348,1244.515 		"/>
		<polygon opacity="0.88" fill="none" stroke="#D65DB1" stroke-miterlimit="10" enable-background="new    " points="
			568.186,1195.451 538.654,1195.451 523.889,1220.914 538.654,1246.492 568.186,1246.492 582.951,1220.914 		"/>
		<polygon opacity="0.88" fill="none" stroke="#845EC2" stroke-miterlimit="10" enable-background="new    " points="
			990.574,1101.742 977.902,1101.742 971.623,1112.671 977.902,1123.599 990.574,1123.599 996.853,1112.671 		"/>
		<polygon opacity="0.88" fill="none" stroke="#845EC2" stroke-miterlimit="10" enable-background="new    " points="
			1059.054,1013.845 1046.73,1013.845 1040.568,1024.542 1046.73,1035.238 1059.054,1035.238 1065.216,1024.542 		"/>
		<polygon opacity="0.88" fill="none" stroke="#D65DB1" stroke-miterlimit="10" enable-background="new    " points="
			666.08,1240.097 653.291,1240.097 646.896,1251.142 653.291,1262.302 666.08,1262.302 672.474,1251.142 		"/>
		<polygon opacity="0.88" fill="none" stroke="#845EC2" stroke-miterlimit="10" enable-background="new    " points="
			172.653,1258.117 164.515,1258.117 160.445,1265.21 164.515,1272.302 172.653,1272.302 176.722,1265.21 		"/>
	</g>
	<g id="Calque_4">
		<g id="Calque_1_2_" opacity="0.2">
			<polygon fill="none" stroke="#D65DB1" stroke-miterlimit="10" points="859.195,1244.98 854.429,1259.396 839.779,1262.535 
				829.781,1251.142 834.431,1236.841 849.197,1233.703 			"/>
			<polygon fill="none" stroke="#845EC2" stroke-miterlimit="10" points="896.517,1293.345 898.376,1310.902 884.425,1321.365 
				868.265,1314.39 866.404,1296.833 880.472,1286.253 			"/>
			<polygon fill="none" stroke="#FF9671" stroke-miterlimit="10" points="943.023,1272.302 937.093,1250.212 953.138,1234.167 
				974.763,1239.98 980.576,1262.07 964.763,1278.115 			"/>
			<polygon fill="none" stroke="#D65DB1" stroke-miterlimit="10" points="757,1290.789 758.744,1274.046 774.089,1267.187 
				787.576,1277.185 785.716,1294.042 770.369,1300.787 			"/>
			<polygon fill="none" stroke="#D65DB1" stroke-miterlimit="10" points="617.482,1266.72 613.994,1297.531 585.741,1309.972 
				561.093,1291.486 564.581,1260.558 592.717,1248.236 			"/>
			<polygon fill="none" stroke="#D65DB1" stroke-miterlimit="10" points="665.15,1290.789 660.964,1274.744 672.474,1263.001 
				688.402,1267.302 692.705,1283.347 681.078,1295.089 			"/>
			<polygon fill="none" stroke="#FF9671" stroke-miterlimit="10" points="1026.267,1284.044 1036.15,1306.251 1022.082,1326.015 
				998.015,1323.691 988.132,1301.369 1002.201,1281.603 			"/>
			<polygon fill="none" stroke="#FAEDED" stroke-miterlimit="10" points="43.832,1515.179 63.132,1521.689 67.201,1541.455 
				51.854,1554.708 32.554,1548.314 28.485,1528.548 			"/>
			<polygon fill="none" stroke="#FAEDED" stroke-miterlimit="10" points="43.134,1439.375 57.551,1462.162 44.878,1485.88 
				17.789,1486.81 3.372,1464.138 16.044,1440.421 			"/>
			<polygon fill="none" stroke="#D65DB1" stroke-miterlimit="10" points="37.786,1368.22 49.18,1363.22 59.179,1370.546 
				57.784,1382.753 46.39,1387.636 36.507,1380.427 			"/>
			<polygon fill="none" stroke="#D65DB1" stroke-miterlimit="10" points="68.48,1264.511 69.41,1288.58 48.715,1301.369 
				27.09,1290.089 26.276,1265.908 46.854,1253.119 			"/>
			<polygon fill="none" stroke="#D65DB1" stroke-miterlimit="10" points="21.16,1171.152 39.414,1164.873 54.179,1177.314 
				50.459,1196.148 32.205,1202.542 17.556,1189.986 			"/>
			<polygon fill="none" stroke="#D65DB1" stroke-miterlimit="10" points="86.501,1094.068 100.104,1120.808 83.478,1145.806 
				53.133,1144.062 39.53,1117.322 56.272,1092.324 			"/>
			<polygon fill="none" stroke="#D65DB1" stroke-miterlimit="10" points="-17.556,991.173 29.299,978.269 63.945,1011.986 
				51.854,1058.492 5,1071.281 -29.647,1037.679 			"/>
			<polygon fill="none" stroke="#D65DB1" stroke-miterlimit="10" points="17.207,1407.169 29.531,1399.031 42.902,1405.541 
				43.832,1420.306 31.392,1428.445 18.021,1421.818 			"/>
			<polygon fill="none" stroke="#D65DB1" stroke-miterlimit="10" points="724.562,1243.119 720.027,1231.261 727.933,1221.378 
				740.49,1223.355 744.908,1235.212 737.001,1245.095 			"/>
		</g>
		<g id="Calque_2_2_" opacity="0.2">
			<ellipse fill="none" stroke="#FF9671" stroke-miterlimit="10" cx="962.787" cy="1295.089" rx="11.279" ry="11.395"/>
			<ellipse fill="none" stroke="#FF9671" stroke-miterlimit="10" cx="998.365" cy="1228.702" rx="35.693" ry="36.042"/>
			<ellipse fill="none" stroke="#D65DB1" stroke-miterlimit="10" cx="812.457" cy="1217.076" rx="11.512" ry="11.627"/>
			<ellipse fill="none" stroke="#FAEDED" stroke-miterlimit="10" cx="886.634" cy="1200.101" rx="7.324" ry="7.441"/>
			<ellipse fill="none" stroke="#D65DB1" stroke-miterlimit="10" cx="549.932" cy="1206.845" rx="25.811" ry="26.043"/>
			<ellipse fill="none" stroke="#D65DB1" stroke-miterlimit="10" cx="636.548" cy="1204.17" rx="11.277" ry="11.394"/>
			<ellipse fill="none" stroke="#D65DB1" stroke-miterlimit="10" cx="137.657" cy="1206.263" rx="13.719" ry="13.486"/>
			<ellipse fill="none" stroke="#D65DB1" stroke-miterlimit="10" cx="50.227" cy="1351.944" rx="8.371" ry="8.255"/>
			<ellipse fill="none" stroke="#FAEDED" stroke-miterlimit="10" cx="136.611" cy="1490.647" rx="40.693" ry="40.228"/>
			<ellipse fill="none" stroke="#FAEDED" stroke-miterlimit="10" cx="27.438" cy="1527.62" rx="17.091" ry="16.858"/>
			<ellipse fill="none" stroke="#D65DB1" stroke-miterlimit="10" cx="124.287" cy="1358.454" rx="12.324" ry="12.208"/>
		</g>
		
			<circle opacity="0.2" fill="none" stroke="#FF9671" stroke-miterlimit="10" enable-background="new    " cx="1034.058" cy="1190.568" r="6.045"/>
		<polygon opacity="0.2" fill="none" stroke="#D65DB1" stroke-miterlimit="10" enable-background="new    " points="
			783.39,1192.427 788.507,1195.451 788.507,1201.38 783.39,1204.404 778.392,1201.38 778.392,1195.451 		"/>
		
			<ellipse opacity="0.2" fill="none" stroke="#D65DB1" stroke-miterlimit="10" enable-background="new    " cx="696.308" cy="1216.262" rx="5" ry="5.116"/>
		<polygon opacity="0.2" fill="none" stroke="#FF9671" stroke-miterlimit="10" enable-background="new    " points="
			1201.943,1250.328 1197.292,1236.957 1206.478,1226.261 1220.197,1228.818 1224.847,1242.306 1215.664,1253.001 		"/>
		<polygon opacity="0.2" fill="none" stroke="#FF9671" stroke-miterlimit="10" enable-background="new    " points="
			1145.556,1202.542 1165.205,1192.544 1183.458,1204.751 1182.179,1226.958 1162.646,1236.841 1144.277,1224.634 		"/>
		<polygon opacity="0.2" fill="none" stroke="#FF9671" stroke-miterlimit="10" enable-background="new    " points="
			1070.449,1278.58 1060.916,1244.398 1085.562,1219.052 1119.511,1227.888 1128.929,1262.07 1104.398,1287.533 		"/>
		<polygon opacity="0.2" fill="none" stroke="#FF9671" stroke-miterlimit="10" enable-background="new    " points="
			1229.382,1250.445 1226.591,1235.679 1237.753,1225.912 1251.705,1230.912 1254.496,1245.56 1243.333,1255.328 		"/>
		<polygon opacity="0.2" fill="none" stroke="#FF9671" stroke-miterlimit="10" enable-background="new    " points="
			365.071,1278.58 367.513,1300.437 350.073,1313.576 330.075,1304.74 327.634,1282.882 345.189,1269.861 		"/>
		<polygon opacity="0.2" fill="none" stroke="#FF9671" stroke-miterlimit="10" enable-background="new    " points="
			422.971,1252.421 415.646,1225.099 435.527,1204.984 462.501,1212.31 469.709,1239.748 449.944,1259.746 		"/>
		<polygon opacity="0.2" fill="none" stroke="#845EC2" stroke-miterlimit="10" enable-background="new    " points="
			1213.57,1356.246 1215.779,1335.433 1234.847,1326.947 1251.589,1339.386 1249.38,1360.314 1230.312,1368.685 		"/>
		<polygon opacity="0.2" fill="none" stroke="#D65DB1" stroke-miterlimit="10" enable-background="new    " points="
			526.446,1267.07 538.771,1294.742 521.214,1319.273 491.45,1316.25 479.01,1288.695 496.566,1264.046 		"/>
		<polygon opacity="0.2" fill="none" stroke="#FF9671" stroke-miterlimit="10" enable-background="new    " points="
			1173.226,1297.066 1167.646,1282.185 1177.529,1269.861 1192.992,1272.302 1198.572,1287.183 1188.689,1299.507 		"/>
		
			<ellipse opacity="0.2" fill="none" stroke="#FF9671" stroke-miterlimit="10" enable-background="new    " cx="439.016" cy="1324.156" rx="14.067" ry="14.184"/>
		
			<ellipse opacity="0.2" fill="none" stroke="#D65DB1" stroke-miterlimit="10" enable-background="new    " cx="483.313" cy="1241.492" rx="44.297" ry="44.879"/>
		
			<circle opacity="0.2" fill="none" stroke="#D65DB1" stroke-miterlimit="10" enable-background="new    " cx="527.726" cy="1194.172" r="7.44"/>
		<polygon opacity="0.2" fill="none" stroke="#FF9671" stroke-miterlimit="10" enable-background="new    " points="
			1237.986,1277.3 1244.263,1280.906 1244.263,1288.347 1237.986,1292.066 1231.591,1288.347 1231.591,1280.906 		"/>
		<polygon opacity="0.2" fill="none" stroke="#845EC2" stroke-miterlimit="10" enable-background="new    " points="
			490.172,1343.921 487.265,1334.154 494.125,1326.83 504.007,1329.156 507.03,1338.921 500.055,1346.363 		"/>
		<polygon opacity="0.2" fill="none" stroke="#845EC2" stroke-miterlimit="10" enable-background="new    " points="
			459.361,1366.126 464.478,1353.687 477.848,1351.943 486.103,1362.755 480.986,1375.312 467.616,1376.941 		"/>
		<polygon opacity="0.2" fill="none" stroke="#845EC2" stroke-miterlimit="10" enable-background="new    " points="
			431.69,1388.916 426.459,1385.66 426.459,1379.498 431.923,1376.474 437.155,1379.73 437.155,1386.009 		"/>
		<polygon opacity="0.2" fill="none" stroke="#845EC2" stroke-miterlimit="10" enable-background="new    " points="
			380.418,1406.355 389.951,1399.031 401.229,1403.796 402.857,1415.888 393.207,1423.212 381.93,1418.447 		"/>
		<polygon opacity="0.2" fill="none" stroke="#845EC2" stroke-miterlimit="10" enable-background="new    " points="
			355.886,1452.744 347.98,1447.164 348.91,1437.513 357.63,1433.56 365.536,1439.142 364.605,1448.791 		"/>
		<polygon opacity="0.2" fill="none" stroke="#845EC2" stroke-miterlimit="10" enable-background="new    " points="
			453.665,1386.125 446.688,1383.335 445.526,1376.009 451.339,1371.359 458.199,1374.15 459.361,1381.474 		"/>
		
			<ellipse transform="matrix(-0.5772 -0.8166 0.8166 -0.5772 -469.1509 2534.2358)" opacity="0.2" fill="none" stroke="#845EC2" stroke-miterlimit="10" enable-background="new    " cx="421.467" cy="1388.568" rx="4.186" ry="4.069"/>
		
			<ellipse transform="matrix(-0.5772 -0.8166 0.8166 -0.5772 -357.2026 2441.0129)" opacity="0.2" fill="none" stroke="#FF9671" stroke-miterlimit="10" enable-background="new    " cx="453.301" cy="1312.975" rx="20.346" ry="20.114"/>
		
			<ellipse transform="matrix(-0.5772 -0.8166 0.8166 -0.5772 -311.3547 2532.8501)" opacity="0.2" fill="none" stroke="#845EC2" stroke-miterlimit="10" enable-background="new    " cx="500.068" cy="1347.034" rx="8.604" ry="8.488"/>
		
			<ellipse opacity="0.2" fill="none" stroke="#845EC2" stroke-miterlimit="10" enable-background="new    " cx="402.754" cy="1356.353" rx="6.161" ry="6.161"/>
		
			<circle opacity="0.2" fill="none" stroke="#845EC2" stroke-miterlimit="10" enable-background="new    " cx="1168.576" cy="1347.292" r="8.953"/>
		
			<circle opacity="0.2" fill="none" stroke="#FAEDED" stroke-miterlimit="10" enable-background="new    " cx="861.753" cy="1350.896" r="4.65"/>
		
			<circle opacity="0.2" fill="none" stroke="#D65DB1" stroke-miterlimit="10" enable-background="new    " cx="661.779" cy="1336.596" r="9.649"/>
		
			<circle opacity="0.2" fill="none" stroke="#845EC2" stroke-miterlimit="10" enable-background="new    " cx="1085.447" cy="1331.364" r="5.349"/>
		<polygon opacity="0.2" fill="none" stroke="#845EC2" stroke-miterlimit="10" enable-background="new    " points="
			952.091,1338.689 965.695,1338.689 972.437,1326.947 965.695,1315.203 952.091,1315.203 945.347,1326.947 		"/>
		<polygon opacity="0.2" fill="none" stroke="#D65DB1" stroke-miterlimit="10" enable-background="new    " points="
			795.482,1367.406 819.783,1367.406 831.873,1346.363 819.783,1325.318 795.482,1325.318 783.275,1346.363 		"/>
		<polygon opacity="0.2" fill="none" stroke="#845EC2" stroke-miterlimit="10" enable-background="new    " points="
			447.27,1444.607 457.734,1444.607 462.85,1435.537 457.734,1426.585 447.27,1426.585 442.038,1435.537 		"/>
		<polygon opacity="0.2" fill="none" stroke="#D65DB1" stroke-miterlimit="10" enable-background="new    " points="
			714.679,1330.55 725.259,1330.55 730.607,1321.365 725.259,1312.296 714.679,1312.296 709.447,1321.365 		"/>
		<polygon opacity="0.2" fill="none" stroke="#845EC2" stroke-miterlimit="10" enable-background="new    " points="
			1121.488,1315.669 1128.232,1315.669 1131.603,1309.855 1128.232,1304.042 1121.488,1304.042 1118.117,1309.855 		"/>
	</g>
</g>
</svg>
