<?xml version="1.0" encoding="utf-8"?>
<!-- Generator: Adobe Illustrator 21.0.0, SVG Export Plug-In . SVG Version: 6.00 Build 0)  -->
<svg version="1.1" id="Calque_2" xmlns="http://www.w3.org/2000/svg" xmlns:xlink="http://www.w3.org/1999/xlink" x="0px" y="0px"
	 viewBox="0 0 1024 768" style="enable-background:new 0 0 1024 768;" xml:space="preserve">
<style type="text/css">
	.st0{fill:#878787;}
	.st1{fill:#575756;}
	.st2{fill:#3C3C3B;}
</style>
<path class="st0" d="M-82,342c4.6-1.7,7.4,8,25.5,22c15.9,12.3,30.1,18.1,56.5,28.9c15,6.2,25.8,9.8,41.5,15.1
	c54.3,18.2,48.1,10.5,67,18c2.9,1.2,9.6,3.9,17.5,2.3c4.3-0.8,7.4-2.7,13.5-6.3c9.3-5.5,12.7-9.8,18.5-9.6c1.1,0.1,2.6,0.3,4.3-0.4
	c3-1.3,3-3.8,5.8-6.3c2.9-2.6,4.2-1,9.4-3.7c5.2-2.8,5.6-5.3,8-5c3.8,0.5,4.2,7.3,8.3,8.1c2.2,0.4,4-1.1,7.2-3.6
	c17.6-13.9,21.5-15.1,23.5-15.5c3.6-0.8,4.7-0.1,8-1.5c4.9-2.1,6.3-5.1,10-5c2.3,0.1,2.2,1.3,5.5,2c5.3,1.2,7.2-1.5,10,0
	c2.9,1.6,1.6,5.1,5,8.5c2.4,2.5,4.8,2.3,7.7,3.6c8.3,3.5,7.1,11.9,12.9,15.8c9.7,6.6,22.9-10.4,35.9-4.9c10.8,4.6,12,20.8,20.5,20.5
	c3.4-0.1,4.3-2.7,9-3c5.6-0.4,10,2.9,13,5c10.9,7.6,21.2,11.9,30,15.5c3.2,1.3,11.5,4.6,22.5,6.5c7.8,1.4,13.6,2.4,20.5,1
	c6-1.2,10-3.7,18.7-9.9c25.7-18.1,28.6-22.9,36.3-22.6c5,0.2,5.3,2.2,19,9.5c11,5.9,10.7,4.4,31,13.5c21.8,9.8,27.9,14,39,18
	c3.1,1.1,6.8,2.3,12,5c6.1,3.1,6.4,4.3,9.5,5c2.7,0.6,6.5,0.7,16.5-4c7.4-3.5,10.8-6.1,15-8.5c13-7.5,16-3.1,31.5-10
	c14.5-6.4,17.6-12.7,24.4-10.7c6.1,1.8,5.9,7.6,14.1,10.7c6,2.2,11.6,1.2,15.5,0.5c4.7-0.9,6.8-2.1,18.1-7.7
	c17.7-8.8,15.8-7.3,19.9-9.8c11.7-7.1,12.8-10.7,18.4-10.7c7.7-0.1,8.3,6.7,16.1,7.7c11.6,1.6,15.9-12.3,31-13
	c8.8-0.4,8.5,4.3,16.5,3.5c14.9-1.4,20.3-17.9,30.5-15.5c2.9,0.7,4.7,2.5,12,4.5c3.3,0.9,5.3,1.2,7.5,1c4.5-0.4,5-2.2,8-2.5
	c4.6-0.4,6.1,3.8,16,10.5c3.6,2.5,6.6,4.5,11,6c4.9,1.7,8.4,1.7,11.5,2c15.6,1.6,17.2,11.1,28,10.5c7-0.4,13.1-4.8,20.5-10
	c5.5-3.9,9.2-7.8,15-7.5c4,0.2,4.4,2.1,7.8,1.7c6.6-0.8,8.9-8.5,13.4-7.6c2,0.4,2.1,2,5.2,2.9c3.4,0.9,5.8-0.4,6,0
	c0.6,1.3-18.7,11.4-38.9,23.5c-10.8,6.5-13.9,8.8-21.1,11.5c-5.2,2-7.5,2.3-11,4.9c-4.7,3.5-4.8,6.1-11,15.6
	c-6.2,9.4-9.3,14.1-14.3,17c-4,2.3-6.4,2.2-9.7,5.5c-3.9,4-5,8.8-5.3,10.5c-2,9.3,3.3,11.7,0.7,17.3c-0.8,1.7-4.7,4.9-12.7,11.3
	c-3.3,2.7-3.2,2.5-3.7,3c-5.4,5.9-3.5,15.3-3,22c0.9,12.8-2.6,31-9.7,33.7c-8.1,3-24.6-13.1-31.7-31.7c-7.8-20.6-2.9-41.2-4-41.3
	c-1.6-0.2-3.4,45.2-14.7,47c-2.2,0.4-6.9-4.6-16.3-14.7c-12.5-13.4-18.7-20.1-22-25.3c-2-3.2-3.9-6.6-8-10.3
	c-1.9-1.7-6.1-5.5-12.3-7c-4.7-1.2-8.6-0.6-10.3-0.3c-11.8,1.6-25.3-0.2-30.7-1.3c-20.3-4.4-25-22.4-40.7-21.3
	c-2.3,0.1-6.2,0.4-10,3c-5.9,4.1-4.7,9.4-9.3,11.3c-3.7,1.6-6-1.1-17.3-4c-5.3-1.3-4.6-0.7-12-2.3c-16.2-3.5-19.2-6.4-22.3-4.3
	c-4.1,2.7-0.9,8.7-3.7,19.7c-0.7,2.9-4.1,16.1-14.7,23c-8.8,5.7-19,4.7-32.3,3.3c-6-0.6-11.7-1.8-17-3c-8.9-1.9-13.3-2.9-16.3-4.3
	c-13.3-6.4-17.5-20.6-20-19.6c-2.6,1,4.2,14.6-1.7,20.6c-3.9,4-12.9,4.2-18.7,1c-3.3-1.8-5.3-4.6-6.3-4c-1.6,1,2.7,8.8,0.7,10.3
	c-1.1,0.8-4.1-0.3-5.3-2.3c-2.2-3.6,1.2-9.1,0-9.7c-0.6-0.3-1.3,1.1-3.3,2c-2.3,1-3.6,0.2-7,0.3c-2.7,0.1-5.9,0.3-7.7,2.3
	c-2.1,2.4-0.6,5.7-2.3,6.7c-1.2,0.6-2.6-0.6-4.3-1.3c-3.3-1.5-9.1,0.2-20.7,3.7c-2.8,0.8-4.9,1.5-7.3,3c-2.8,1.7-4.5,2.6-5.3,4.3
	c-2.3,4.6,3.1,9.7,1.3,11.7c-2.1,2.5-10.6-5.1-19-2c-0.7,0.3-4.6,1.9-6,5.3c-1.7,4.1,3.5,8.5,2.3,10c-2,2.5-18.1-8-19.4-6.3
	c-1.1,1.5,11.3,10.8,9.5,14.2c-0.9,1.8-5.4,1.1-7.5,0.8c-19.6-3-29.4-4.1-32-4c-9.8,0.5-8.3,4.6-27.3,8.7c-13.3,2.8-16.5,1.3-18.3,0
	c-4-3-5.5-9-11-10c-1.1-0.2-2-0.1-3.7-0.7c-1.3-0.4-4.3-1.4-6.3-4.3c-0.5-0.7-1.6-2.4-1.7-4.7c-0.1-3.5,2.4-5.4,1.7-6.3
	c-0.9-1.1-4.4,2.1-8,1.3c-4.7-1.1-3.5-8-10.3-13c-2.8-2.1-3.5-1.4-10-5.3c-4.2-2.6-6.1-4.2-7.3-5.3c-3-2.8-4.5-4.2-5.3-6.3
	c-2.3-5.8,1.9-11.1-0.7-13.3c-0.9-0.8-1.5-0.2-4.7-1c-2.3-0.6-3.7-1.4-6-2.7c-6.7-3.6-10.1-5.4-14-6.7c-1.5-0.5-2.8-0.8-5-1.7
	c-3.2-1.3-3.8-1.9-5.3-2.3c-2.9-0.7-5.2,0.3-8,1.3c-6.3,2.2-5.8,0.7-13.7,3c-9,2.7-9.5,4.7-16,5.7c-4.9,0.8-8.7,0.3-10.7,0
	c-11.5-1.6-13.7-7.2-23-9.3c-9.3-2.1-17.5,1.2-21.3,2.7c-13.3,5.3-14.3,13.8-23,13.7c-7.6-0.1-10.4-6.8-17-5
	c-5.6,1.5-5.5,6.8-10.3,7c-4.4,0.2-6.3-4-15-5.4c-1.4-0.2-2.3-0.2-2.9-0.3c-10.6-0.9-16.9-19-33.5-36c-8.9-9.1-13.4-13.7-17.7-16.7
	c-3.7-2.5-7.2-4.5-9.3-9c-1.8-3.8-1-6-3.7-10c-1.8-2.8-5.1-6.1-7.4-5.3c-1.4,0.5-1.4,2.2-3,2.7c-2.2,0.7-4.7-1.8-5.3-2.3
	c-2.6-2.3-9.1-3.9-26.7,0c-6.1-2.8-13.9-7.5-21-15C-92.9,391.9-91.7,345.5-82,342z"/>
<path class="st1" d="M61.8,511.3c-3.8,0.7-10.5,3.6-11.4,8.4c-0.9,4.6,3.7,10.1,8.3,11.7c3.5,1.2,7.3,0.3,8,2
	c0.3,0.8-0.4,1.1-0.6,2.7c-0.3,2.3,0.9,3.4,1.7,6.3c0.4,1.4,0.4,2.6,0.5,4.9c0.2,8.5-1.5,16.1-0.5,21.8c1.4,7.5,6.6,6,11.7,15.3
	c7.1,13.1-1.1,19.9,6.3,31.3c4.6,7,10.2,8.2,11.3,15.7c0.7,4.2-0.5,7.8,2,10c2.9,2.6,7.7,0.8,8.3,2.3c0.5,1.5-4.6,2.9-5.6,6.4
	c-0.6,1.9-0.4,5.8,18.3,21.7c1.3,1.1,8.1,6.9,17.3,13.9c8.2,6.3,8.5,6,12.3,9.4c5.2,4.6,6.4,6.6,10.3,8.3c2.2,1,5.5,1.3,12,2
	c8.7,0.9,13.1,1.3,16,0.7c5.3-1.2,6.3-3.3,10.7-3c2.9,0.2,4,1.2,8.3,3c4.3,1.8,9.6,3.3,13,3.7c7.3,0.8,10.5-3.4,17.7-6
	c11-4,14.8,1.7,34.3,2.3c12.4,0.4,21.2,0.7,30.7-4.3c8.2-4.4,20.7-14.9,20.3-26.7c-0.2-5.4-3.1-11.3-0.5-13.1
	c0.6-0.5,1.3-0.4,4.5,0.1c9.7,1.5,11,2,13.3,1.3c2.5-0.7,4.5-2.4,5.7-3.3c1.9-1.6,2.3-2.4,3.3-3.3c5-4.5,15.5-0.5,15.7-1.3
	c0.2-0.6-6.1-2.5-6-3c0.1-0.5,8.1,1.7,17.3,2c7.7,0.2,13.6-1.1,17.7-2c10.7-2.4,17.9-6.3,23.3-9.3c0,0,7.6-4.7,11.7-10
	c1.9-2.6,3.3-5.3,3.3-5.3c1-1.9,1-2.4,1.3-3c3.1-5.2,18.8-0.8,19.7-3.3c0.5-1.6-5.4-3.9-5-6.3c0.1-0.5,0.7-2.3,11-3.8
	c6.3-0.9,12-1.1,17-1.2c10.4-0.2,12.9,0.2,14-1.7c1.6-2.8-2.9-6.3-2-13.3c0.3-2.5,1.1-4.2,2-6c3.2-6.7,8.5-10.9,12.3-13.3
	c4.2-4,7.9-7.4,10.7-10c16-14.9,19.1-17.4,23.7-17.3c5.6,0,9,3.7,13,1.3c2.4-1.5,2.3-3.5,5.3-5.7c3-2.1,5.5-1.8,9-2.3
	c8.8-1.4,15.8-7.2,15.3-8.7c-0.5-1.5-8.6,1-16-2.3c-3.5-1.6-4.2-3.2-4.3-4.1c0-0.2-0.2-1.3,0.3-2.3c0.3-0.5,1.2-1.8,6.3-2
	c3.4-0.1,6,0.3,6,0.3s6.8,1.3,13.3,1c9.1-0.4,18.2-7.7,17.3-11.3c-0.6-2.8-7.3-3.4-8.3-3.5c-11.4-1.1-15.4,7.8-25.2,5.9
	c-3.2-0.6-5-1.9-8.8-1.5c-4.1,0.5-7.6,2.8-8.3,3.3c-3,2.1-3.5,3.7-5.5,3.8c-2.1,0.1-3.9-1.6-5.3-2.8c-1.2-1.1-1.4-1.7-3.3-4
	c-2-2.5-2.6-2.9-3.8-4.4c-2.7-3.3-2.8-5.1-4.7-8.3c-1.8-3-6.3-9.4-8.8-8.8c-4.6,1.2,0.9,25.4-5,27.5c-5.4,2-13.7-16.4-23-14.5
	c-4.5,0.9-4,7.2-11.5,10.5c-3.2,1.4-6.5,1.8-10,2.3c-3.9,0.5-5.2,0.2-9.5,0.5c-0.4,0-5.7,0.4-11.6,1.7c-4.2,0.9-10,2.6-16.8,5.8
	c-0.4,0.2-0.9,0.4-1.5,0.8c-7.5,4-8.6,7.1-12.6,10.3c-1.2,1-3,2.2-5.5,3.2c-3,1.2-5.7,1.5-7.8,1.7c-2.9,0.3-3.4,0-6.7,0.3
	c-1.6,0.2-3.1,0.4-4.8,0.8c-4.7,1.3-8,3.8-9.5,5c-2.5,2.1-2.1,2.5-4.7,4.6c-0.7,0.6-3.1,2.4-6.5,3.8c-3.7,1.6-3.7,0.6-9.3,2.5
	c-0.9,0.3-1.2,0.4-9,3.4c-4.1,1.5-4,1.5-4.1,1.5c-6.1,3-6.3,5.6-12.7,8.3c-2.6,1.1-7.9,3.4-14.7,2.3c-1.9-0.3-6.4-1.2-10.8-4.5
	c-7.2-5.5-4.8-11.3-12.3-19.5c-0.4-0.4-1.4-1.1-2.3-1.9c-3.1-2.6-5.4-4.3-7.9-6.3c-9.9-7.8-10.4-8-11.5-8.5c-3.2-1.4-4.8-1.5-8-3.5
	c-3.1-2-5-4.2-6-5.5c-5.9-7.3-2.9-11.4-7.3-17.4c-4.1-5.6-11.3-8.1-18.6-10.6c-4.8-1.7-6.7-1.7-9.6-4c-5-4-4.3-7.9-8.1-9.6
	c-2.2-1-3.6-0.2-14.2,3.3c-12.1,3.9-12.7,3.7-15.1,5.4c-5.7,3.8-5.2,6.6-10,8.5c-5.9,2.3-11.7,0.2-13.1-0.3
	c-6.8-2.4-11.7-8.4-12.7-9.6c-1.5-1.8-2.6-3.7-5.3-5.2c-0.7-0.4-3.3-1.8-6.6-1.9c-3.2-0.1-4.6,1.1-13.5,5.6
	c-3.6,1.8-5.5,2.8-7.9,3.7c-1.5,0.6-4.7,1.9-9.1,3c-10.1,2.7-11.5,0.9-20.7,3.4C88.1,500,83.5,502,81,503c-4.1,1.7-6.2,2.6-8.1,3.8
	c-2.2,1.4-3.6,2.5-6.4,3.5C64.4,511,63.2,511,61.8,511.3z"/>
<path class="st2" d="M-95.4,441.1c0,0,2.1-41.7,12.9-43.1c5.9-0.8,10.5,11.7,26,19c6.9,3.3,15.1,5.4,15.1,5.4
	c3.2,0.8,5.1,1.3,7.9,1.6c5.8,0.5,7.9-0.6,13-0.5c2.5,0.1,7.1,0.3,11.5,2.4c4.7,2.2,5.6,4.9,9.9,9.1c8.9,8.8,13.7,5.7,22.5,14.6
	c4.5,4.5,7.3,9.3,8.5,11.6c2.2,4.2,2.5,6.1,5.5,13.3c0.4,1,2.1,4.8,5.7,12.3c5.1,10.7,6.7,14.2,11,18.7c2.9,3,5.4,4.7,6.5,5.5
	c4.6,3.4,14.4,33.1,19.5,46c5.5,13.9,7.5,13.4,11.4,25.8c2.7,8.6,2.8,12.4,6.6,22.2c2.3,5.9,3.4,7.2,7.6,16.8
	c5.6,12.9,5.9,14.6,8,19.2c2.1,4.5,4.3,8,27.8,33.5c13.6,14.7,16.1,17.1,21,18c0,0,0.5,0.1,0.9,0.1c3.4,0.3,7.1-1,7.1-1
	c0.8-0.3,1.2-0.3,13.4-0.9C196,690.1,202,690,205,691c1.9,0.6,4.5,1.8,8.8,2.7c0,0,4.7,1,9.7,1.1c10,0.2,17.5-4,26.3-5.9
	c13.6-2.9,13.5,3.2,25.3,0.7c14.6-3.2,31.7-14.5,37.3-27c0.8-1.9,1.9-4.7,4.8-6.5c5.5-3.4,11.2,1.2,18.8,0c7.3-1.2,6.9-6,15.1-10.7
	c13.8-7.9,23.9,1.4,44.4-6c3.8-1.4,7.6-3.9,8.2-4.3c4.8-2.8,9.4-5.8,25.3-18c2.8-2.1,5-3.9,6.5-5c0.8-3.8,2.5-8.9,6.8-11.4
	c4.5-2.6,8.8-0.4,12.7-0.3c15.7,0.4,22.8-27,51.4-53.9c12.2-11.4,18.3-13.4,21.9-14.2c8.3-1.8,13.3,0.6,18.3-3.7
	c5-4.4,4.5-10.7,9.9-12.5c0.7-0.2,2.8-0.1,7,0c7.1,0.2,8.3,0.7,11.3,0.3c1.1-0.1,3.3-0.4,8.4-2.4c4.4-1.7,9.8-4.1,16.5-8.2
	c4.7-2.9,12.4-7.6,16.3-12.8c2.1-2.8,3.3-4.7,3.3-4.7c2-3,2.1-3.9,3.3-5.2c2.1-2.3,4.7-3.2,6.2-3.7c3.8-1.2,4.8-0.1,11.4-0.9
	c0.8-0.1,3.2-0.4,6.3-1.1c4.5-1,6.4-1.9,9.8-1.8c1.8,0,3.2,0.3,4,0.5c7.2,1.5,9.8,5.6,12.5,4.3c1.2-0.6,1.8-1.9,2.2-2.7
	c0.8-1.7,0.4-2.9,1.5-4.9c0,0,0.5-0.9,1.4-2c2.4-2.8,14.2-4.7,26.5,1.2c4.5,2.1,7.7,4.7,13.2,9c5.9,4.6,5.5,5.2,9.4,8
	c1.9,1.4,9,6.2,19.4,8.6c6.1,1.4,11.6,2.8,18,1c4.3-1.2,7.4-2.9,7.4-2.9c4.7-2.5,6.2-4.8,9.7-4.8c2.4-0.1,4.2,0.9,5,1.3
	c2.9,1.6,4.4,4.1,5,5.2c1,1.7,5.3,6.9,13.8,17.2c3.7,4.5,5.7,6.8,8.8,9.9c4.4,4.3,5,4,7.3,6.9c3.3,4.1,2.8,5.6,7,11
	c1.9,2.4,2.3,2.6,4.2,5.2c2.8,3.9,4.2,5.9,4.5,6.7c0.1,0.1,0.2,0.6,0.7,1c0.8,0.7,2,0.7,2.2,0.7c0.4,0,1.5-0.2,3-2
	c2.2-2.7,2.8-6.1,3-8c4.3-23.4,4.8-27.3,4.8-27.3c1.2-9,2.1-13.7,3.2-13.7c1,0,1.9,3.5,2.2,4.5c0.6,2.2,0.6,4.1,0.5,5.3
	c1,4.7,1.5,8.6,1.8,11.2c0.7,5.6,0.4,6.2,1.2,11.4c0.8,5.4,1.3,5.7,1.7,10.1c0.3,3.5,0.1,4.5,0.7,7.6c0.5,2.8,1.2,5,1.8,6.8
	c0.1,0.5,0.7,1.9,1.7,4.7c0,0,0.7,1.6,1.5,3c1.6,2.8,14.2,11.9,30.5,9c17.5-3.1,20-16.5,31.5-15c7.8,1,16.3,8.5,16.5,17.5
	c0.2,8.4-6.9,17.2-13,17c-8.6-0.3-7.4-18.3-24.9-31.7c-8.5-6.5-17-8.5-16.6-12.3c0.4-3,6.1-4.9,11.5-6c0.3-1.8,1.1-4.4,3-7
	c2.6-3.5,6.4-5.6,14.9-7.6c8.7-2.1,22.2-4.2,22.6-2.4c0.6,2.6-26.8,11.9-27,11.5c-0.1-0.2,7.3-5,11-2.5c2.7,1.8,3.4,7.2,1.5,11
	c-4.1,8.4-18.1,3.1-25,10c-12.7,12.6,7.7,56.4,9.6,55.8c1.4-0.4-2.6-24.8-10.1-25.8c-2.1-0.3-2.9,1.4-8,4c0,0-7,3.5-15,4.5
	c-7.2,0.9-12.9-0.8-20.5-3c-9.8-2.8-13.8-5.8-17-3.5c-2,1.4-3.2,4.6-2.2,6.5c2,4,11.4-1,19.2,4c5.1,3.3,8.6,10.2,7,15
	c-1.6,4.8-7,4.3-8.5,8c-3.8,9.4,26.2,26.2,23.5,32.5c-3.2,7.6-49.3-8.4-67,4.5c-1.9,1.4-6.5,5.3-13.5,6.5c-2.6,0.5-6.6,0.3-14.5,0
	c-8.7-0.3-9.2-0.7-11.5,0c-5.4,1.7-7,5.2-10.5,4.5c-2.9-0.6-3.2-3.3-6-3.5c-2.1-0.1-3.4,1.2-7,4c-2,1.5-4.8,3.6-8.5,6
	c-0.3-0.7-2.8-6.8-7.5-7.3c-1.7-0.2-3,0.8-4.5,1.3c-5.9,1.6-6.7,7.9-10.3,11.3c-8.1,7.6-23.4-6.4-35.8,0.8
	c-7.8,4.5-8.7,14.3-13.8,13.8c-4-0.4-4.2-6.4-9-7.5c-4.4-1-6.6,2.8-16.3,7c-2.2,0.9-7.7,3.3-14.5,4.3c-8,1.1-8.8-0.9-19-0.8
	c-10.1,0.2-11.3,2.4-20.8,2c-7.1-0.3-8.4-1.3-14.8-2c-15.2-1.6-15.8,3.1-29.8,2c-12.8-1-24-6-28-7.8c-3.5-1.5-3.1-1.6-6.3-3
	c-11.5-5-17.8-4.6-28.5-7c-10.3-2.3-21.8-4.9-33-13c-6.2-4.5-9-8.2-13.5-7.5c-6.5,1.1-6.2,10-14,13c-8.1,3.2-13.3-4.7-21-1
	c-6,2.9-5.9,9.2-11.5,10c-3.6,0.5-4.6-2-10-3.5c-7.3-2.1-14,0.1-20,2c-7.3,2.3-9.2,5.2-17,6.5c-2.8,0.5-5.2,0.5-6.8,0.5
	c-1.5-1.3-3-2.6-4.5-3.9c-2.5,3.1-5.6,5.9-9.7,7.4c-5.7,2.1-9.5,0-17,1.5c-5.4,1.1-9.7,2.7-12.5,4c-1.8-0.2-4.6-0.5-8-0.5
	c-14,0-19.4,4.5-37.5,8c-9.5,1.9-8.2,0.6-17,2.5c-8.2,1.7-12.4,3.4-18.5,2c-3.2-0.7-3.1-1.5-8-3.5c-5.5-2.3-14.3-6-23-4.5
	c-9,1.5-8.8,7-16.5,7c-5.9,0-6.7-3.2-16.5-5c-3.7-0.7-6.8-0.8-13-1c-10.7-0.4-15.1,0.5-16.5-2c-1.5-2.6,2.1-6.1,0.6-7.8
	c-2.1-2.4-10.2,3.6-13.6,0.8c-2.5-2.1,0.8-6.4-2-10.5c-2.1-3.1-5-2.1-11-6.5c-2.6-1.9-5.3-4.5-5-5c0.7-1.1,13.4,6.5,14,5.5
	c2-3.2-11.3-10.3-8.4-7.8c0,0-5.5-2.1-8.1-2.7c-5.2-1.2-8.3,1.2-16.5,4c0,0-8,2.7-18.5,4c-7.9,1-13.2,0.4-19.5,0
	c-32-2.1-35.6,3.8-42.5-1.5c-8.2-6.3-2.8-14.6-13.3-34.5c-5-9.4-9.4-17-17.3-20.7C-55,618.1-67.2,634.5-79,633
	C-105,629.6-100.3,539.1-95.4,441.1z"/>
<path d="M-255.9,624.1c115.4,26.4,162,21.3,181.5,9.2C-71,631.1-51,618-39.5,625c6.4,3.9,5.4,11.1,15.2,20c5.6,5.1,11,7.4,18.4,10.4
	c12.9,5.3,24.3,7.2,32,8.2c25.6,3.2,42.1-0.2,65.5,3.4c7.3,1.1,14.9,2.8,19.4,8.8c2,2.7,2.2,4.8,5.6,8.2c4.1,4.2,10.1,7.6,10.1,7.6
	c0,0,0,0,0,0c13.5,0.7,23.7,0.7,23.7,0.7s9.3,0,22.6-0.8c3.9-0.2,5.9-0.4,7-0.4c6.1-0.5,7.3-0.8,12.1-0.5
	c11.7,0.7,16.2,3.4,27.6,4.6c3.3,0.4,8.5,0.7,22.8-0.4c14.8-1.1,35.5-2.8,63.8-9.7c22.8-5.6,20.6-7.3,34.7-9.4
	c16.6-2.5,24-0.9,40.9-5.6c7.2-2,13.3-3.7,21.1-7.6c12-6,16.6-11.6,27.8-13.4c5.3-0.9,9.3-0.5,12.8-0.1c12.8,1.3,22.4,6.4,36.9,15
	c17.5,10.5,18.9,12.4,27,17c8.4,4.8,32.8,18.5,63.2,19.4c6.4,0.2,19.5-1.8,45.6-5.8c11.6-1.8,20.3-3.3,33.2-5.7
	c21.4-3.8,32.4-5.8,43.2-8.5c16.1-4,24.2-5.9,33.3-9.9c21.2-9.3,20.5-15.8,35-19.5c20.6-5.3,28.9,5.9,38.5-1.5
	c7.4-5.7,8.9-18.8,12-45c1.7-14.6,0.7-16.5,3.5-19.5c8.3-9,23.4,0.4,48-8.5c6.3-2.3,11.4-5.1,15.5-10c1.4-1.6,3.5-4.5,7-15.5
	c6.1-18.9,4.1-23.9,9.5-28c5.9-4.6,11.3-0.7,15-5.5c4.2-5.5-1.4-12.3,3.5-19.5c2.1-3.1,3.5-2.2,8-7c4.7-5,4.5-7.3,7.7-11.2
	c6.4-7.9,11.4-4.3,18.8-11.8c6.1-6.2,4.3-10.4,11-15.6c3.4-2.6,5.8-3,11-4.9c5.2-1.9,12.7-6.4,27.7-15.4
	c12.5-7.5,11.4-7.3,19.8-12.1c4-2.3,7.5-4.2,12.5-7.5c5.9-3.9,9.9-7.1,11.1-8c10.4-8.2,38.7-25.9,74.5-42.9
	c24.2-11.4,36.4-17.1,39.9-13.5c6.3,6.5-14.4,27.7-21,61.5c-6.3,32.3,3.7,58.3,7.5,70.5c14.7,47.2,44.5,232-14.6,300
	c-88.9,102.4-403-32.6-574.5,6.9c-9,2.1-41.3,10.1-86,14c-68.4,6-120.2-1.6-138-4c-188-25.4-279.1,28.5-407.9-24.4
	C-125,753.6-191.5,714.6-255.9,624.1z"/>
</svg>
