<?xml version="1.0" encoding="utf-8"?>
<!-- Generator: Adobe Illustrator 21.0.0, SVG Export Plug-In . SVG Version: 6.00 Build 0)  -->
<svg version="1.1" id="Calque_1" xmlns="http://www.w3.org/2000/svg" xmlns:xlink="http://www.w3.org/1999/xlink" x="0px" y="0px"
	 viewBox="0 0 1920 1080" style="enable-background:new 0 0 1920 1080;" xml:space="preserve">
<style type="text/css">
	.st0{opacity:0.66;}
	.st1{fill:none;stroke:#FAEDED;stroke-miterlimit:10;}
</style>
<g id="Calque_1_1_" class="st0">
	<polygon class="st1" points="5.5,504.4 23.9,510.4 27.8,529.1 13.4,541.8 -4.9,535.8 -8.9,517.1 	"/>
	<polygon class="st1" points="67,456.9 89.4,454.4 102.8,472.3 93.9,492.7 71.5,495.2 58.1,477.3 	"/>
	<polygon class="st1" points="40.2,397.6 12.2,405.1 -8.4,384.8 -0.8,357.1 27.2,349.7 47.7,369.9 	"/>
	<polygon class="st1" points="63.8,634.5 42.5,632.2 33.8,612.7 46.6,595.6 67.9,597.9 76.6,617.4 	"/>
	<polygon class="st1" points="33.2,812.2 72.4,816.6 88.2,852.5 64.7,883.9 25.4,879.5 9.5,843.6 	"/>
	<polygon class="st1" points="63.8,751.4 43.4,756.8 28.4,742.1 33.9,721.8 54.3,716.4 69.4,731.2 	"/>
	<polygon class="st1" points="55.3,291.6 83.5,279 108.7,297 105.6,327.5 77.3,340.2 52.1,322.2 	"/>
	<polygon class="st1" points="3.1,675.8 -12,681.6 -24.6,671.4 -22.1,655.5 -6.9,649.9 5.7,659.9 	"/>
</g>
<g id="Calque_2" class="st0">
	<ellipse class="st1" cx="69.3" cy="372.4" rx="14.5" ry="14.4"/>
	<ellipse class="st1" cx="-15.3" cy="327" rx="45.9" ry="45.4"/>
	<ellipse class="st1" cx="-30" cy="564" rx="14.9" ry="14.7"/>
	<ellipse class="st1" cx="-51.7" cy="469.4" rx="9.5" ry="9.3"/>
	<ellipse class="st1" cx="-46.6" cy="787.8" rx="14.5" ry="14.4"/>
</g>
<polygon class="st1" points="-61.3,600.8 -57.6,594.3 -50,594.3 -46.3,600.8 -50,607.3 -57.6,607.3 "/>
<ellipse class="st1" cx="-31.1" cy="711.7" rx="6.5" ry="6.4"/>
<polygon class="st1" points="12.2,67.9 -4.7,73.7 -18.4,62.1 -15.1,44.6 2,38.7 15.7,50.4 "/>
<polygon class="st1" points="-48.6,139.7 -61.2,114.8 -45.6,91.4 -17.5,93.1 -4.8,118 -20.3,141.3 "/>
<polygon class="st1" points="48.4,235.4 4.7,247.4 -27.5,216.1 -16.2,172.8 27.3,160.8 59.7,192.1 "/>
<polygon class="st1" points="12.5,33 -6.3,36.6 -18.7,22.2 -12.5,4.4 6.3,1 18.7,15.2 "/>
<polygon class="st1" points="-28.2,1192.5 -5.3,1200 -0.4,1223.3 3.6,1245.3 -19.2,1238 -46.1,1208.3 "/>
<polygon class="st1" points="48.2,1133.5 76.1,1130.4 92.8,1152.6 81.6,1178.1 53.8,1181.1 37.2,1158.8 "/>
<polygon class="st1" points="15,1059.9 -19.9,1069.1 -45.4,1043.8 -36.1,1009.5 -1.2,1000.3 24.3,1025.4 "/>
<polygon class="st1" points="147.3,53.1 120.7,50.3 109.9,26 125.7,4.7 152.3,7.6 163.1,31.9 "/>
<polygon class="st1" points="33.6,928.1 68.8,912.4 100.2,934.7 96.3,972.6 61.1,988.3 29.7,966 "/>
<polygon class="st1" points="71.8,104.4 52.9,111.6 37.2,99 40.3,79.3 59.2,72.2 74.9,84.7 "/>
<ellipse class="st1" cx="106.2" cy="1039.4" rx="18.1" ry="17.9"/>
<ellipse class="st1" cx="1.1" cy="982.9" rx="57.1" ry="56.4"/>
<ellipse class="st1" cx="85.5" cy="-23.8" rx="18.4" ry="18.2"/>
<ellipse class="st1" cx="-44.3" cy="1160" rx="11.8" ry="11.6"/>
<polygon class="st1" points="46.6,22 51.3,14 60.7,14 65.4,22 60.7,30.1 51.3,30.1 "/>
<g id="Calque_1_2_" class="st0">
	<polygon class="st1" points="1924.4,517.1 1920.4,535.8 1902.1,541.8 1887.6,529.1 1891.6,510.4 1909.9,504.4 	"/>
	<polygon class="st1" points="1857.4,477.3 1844,495.2 1821.6,492.7 1812.7,472.3 1826.1,454.4 1848.5,456.9 	"/>
	<polygon class="st1" points="1867.7,369.9 1888.3,349.7 1916.3,357.1 1923.8,384.8 1903.2,405.1 1875.3,397.6 	"/>
	<polygon class="st1" points="1838.9,617.4 1847.5,597.9 1868.9,595.6 1881.7,612.7 1873,632.2 1851.6,634.5 	"/>
	<polygon class="st1" points="1905.9,843.6 1890,879.5 1850.8,883.9 1827.2,852.5 1843,816.6 1882.3,812.2 	"/>
	<polygon class="st1" points="1846.1,731.2 1861.1,716.4 1881.6,721.8 1887.1,742.1 1872,756.8 1851.6,751.4 	"/>
	<polygon class="st1" points="1863.3,322.2 1838.1,340.2 1809.9,327.5 1806.7,297 1831.9,279 1860.2,291.6 	"/>
	<polygon class="st1" points="1909.8,659.9 1922.4,649.9 1937.5,655.5 1940.1,671.4 1927.5,681.6 1912.3,675.8 	"/>
</g>
<g id="Calque_2_2_" class="st0">
	<ellipse class="st1" cx="1846.2" cy="372.4" rx="14.5" ry="14.4"/>
	<ellipse class="st1" cx="1930.7" cy="327" rx="45.9" ry="45.4"/>
	<ellipse class="st1" cx="1945.5" cy="564" rx="14.9" ry="14.7"/>
	<ellipse class="st1" cx="1967.2" cy="469.4" rx="9.5" ry="9.3"/>
	<ellipse class="st1" cx="1962" cy="787.8" rx="14.5" ry="14.4"/>
</g>
<polygon class="st1" points="1973,607.3 1965.5,607.3 1961.7,600.8 1965.5,594.3 1973,594.3 1976.8,600.8 "/>
<ellipse class="st1" cx="1946.5" cy="711.7" rx="6.5" ry="6.4"/>
<polygon class="st1" points="1899.8,50.4 1913.5,38.7 1930.5,44.6 1933.9,62.1 1920.2,73.7 1903.2,67.9 "/>
<polygon class="st1" points="1935.8,141.3 1920.3,118 1932.9,93.1 1961.1,91.4 1976.7,114.8 1964,139.7 "/>
<polygon class="st1" points="1855.8,192.1 1888.1,160.8 1931.7,172.8 1943,216.1 1910.8,247.4 1867.1,235.4 "/>
<polygon class="st1" points="1896.7,15.2 1909.2,1 1927.9,4.4 1934.2,22.2 1921.7,36.6 1903,33 "/>
<polygon class="st1" points="1961.5,1208.3 1934.6,1238 1911.9,1245.3 1915.9,1223.3 1920.8,1200 1943.6,1192.5 "/>
<polygon class="st1" points="1878.3,1158.8 1861.7,1181.1 1833.8,1178.1 1822.6,1152.6 1839.4,1130.4 1867.2,1133.5 "/>
<polygon class="st1" points="1891.2,1025.4 1916.6,1000.3 1951.6,1009.5 1960.9,1043.8 1935.3,1069.1 1900.5,1059.9 "/>
<polygon class="st1" points="1752.4,31.9 1763.2,7.6 1789.8,4.7 1805.6,26 1794.8,50.3 1768.2,53.1 "/>
<polygon class="st1" points="1885.7,966 1854.3,988.3 1819.2,972.6 1815.3,934.7 1846.7,912.4 1881.9,928.1 "/>
<polygon class="st1" points="1840.5,84.7 1856.2,72.2 1875.2,79.3 1878.3,99 1862.6,111.6 1843.7,104.4 "/>
<ellipse class="st1" cx="1809.2" cy="1039.4" rx="18.1" ry="17.9"/>
<ellipse class="st1" cx="1914.3" cy="982.9" rx="57.1" ry="56.4"/>
<ellipse class="st1" cx="1830" cy="-23.8" rx="18.4" ry="18.2"/>
<ellipse class="st1" cx="1959.7" cy="1160" rx="11.8" ry="11.6"/>
<polygon class="st1" points="1864.2,30.1 1854.8,30.1 1850.1,22 1854.8,14 1864.2,14 1868.9,22 "/>
</svg>
