<?xml version="1.0" encoding="utf-8"?>
<!-- Generator: Adobe Illustrator 21.0.0, SVG Export Plug-In . SVG Version: 6.00 Build 0)  -->
<svg version="1.1" id="Calque_1" xmlns="http://www.w3.org/2000/svg" xmlns:xlink="http://www.w3.org/1999/xlink" x="0px" y="0px"
	 viewBox="0 0 1920 1080" style="enable-background:new 0 0 1920 1080;" xml:space="preserve">
<style type="text/css">
	.st0{opacity:0.66;}
	.st1{fill:none;stroke:#FAEDED;stroke-miterlimit:10;}
</style>
<g id="Calque_1_1_" class="st0">
	<polygon class="st1" points="52.7,489.6 70.2,495.3 74,513.2 60.2,525.3 42.7,519.6 38.9,501.7 	"/>
	<polygon class="st1" points="111.4,444.2 132.8,441.8 145.6,458.9 137.1,478.4 115.7,480.8 102.9,463.7 	"/>
	<polygon class="st1" points="85.8,387.6 59.1,394.7 39.4,375.3 46.6,348.9 73.4,341.8 93,361.1 	"/>
	<polygon class="st1" points="108.4,613.9 88,611.7 79.7,593.1 91.9,576.7 112.3,578.9 120.6,597.6 	"/>
	<polygon class="st1" points="79.1,783.7 116.6,787.9 131.7,822.2 109.2,852.2 71.7,848 56.5,813.7 	"/>
	<polygon class="st1" points="108.4,725.6 88.9,730.8 74.5,716.7 79.8,697.3 99.3,692.2 113.7,706.3 	"/>
	<polygon class="st1" points="100.2,286.3 127.2,274.2 151.3,291.4 148.3,320.6 121.3,332.7 97.2,315.5 	"/>
	<polygon class="st1" points="1894.4,590.3 1882.2,586.3 1879.6,573.8 1889.3,565.3 1901.5,569.4 1904.1,581.9 	"/>
	<polygon class="st1" points="1894.8,638.3 1885.7,623.9 1893.7,608.9 1910.8,608.3 1920,622.6 1912,637.6 	"/>
	<polygon class="st1" points="1898.2,683.3 1891,686.4 1884.7,681.8 1885.5,674.1 1892.7,671 1899,675.6 	"/>
	<polygon class="st1" points="1878.2,781.5 1877.3,756.3 1898.9,743 1921.4,754.8 1922.3,779.9 1900.7,793.3 	"/>
	<polygon class="st1" points="1927.6,878.8 1908.6,885.4 1893.2,872.3 1897,852.7 1916.1,846.1 1931.4,859.2 	"/>
	<polygon class="st1" points="1859.4,959.3 1845.2,931.4 1862.6,905.2 1894.2,907.1 1908.4,935 1891,961.1 	"/>
	<polygon class="st1" points="1968,1066.6 1919.1,1080.1 1883,1045 1895.6,996.4 1944.4,983 1980.6,1018.1 	"/>
	<polygon class="st1" points="1911.2,658.7 1903.4,663.8 1894.9,659.7 1894.4,650.4 1902.3,645.2 1910.7,649.4 	"/>
	<polygon class="st1" points="50.4,653.4 35.9,658.9 23.9,649.2 26.3,634 40.8,628.6 52.8,638.2 	"/>
</g>
<g id="Calque_2" class="st0">
	<ellipse class="st1" cx="113.6" cy="363.5" rx="13.9" ry="13.8"/>
	<ellipse class="st1" cx="32.8" cy="320.1" rx="43.9" ry="43.4"/>
	<ellipse class="st1" cx="18.7" cy="546.5" rx="14.2" ry="14"/>
	<ellipse class="st1" cx="-2" cy="456.2" rx="9.1" ry="8.9"/>
	<ellipse class="st1" cx="2.9" cy="760.4" rx="13.9" ry="13.8"/>
	<ellipse class="st1" cx="1806.1" cy="842.2" rx="14.3" ry="14.1"/>
	<ellipse class="st1" cx="1890.3" cy="693.6" rx="5.3" ry="5.2"/>
	<ellipse class="st1" cx="1807.1" cy="545.4" rx="42.4" ry="41.9"/>
	<ellipse class="st1" cx="1904.7" cy="582.5" rx="10.8" ry="10.7"/>
	<ellipse class="st1" cx="1820" cy="683.3" rx="12.9" ry="12.7"/>
</g>
<polygon class="st1" points="-11.2,581.7 -7.6,575.5 -0.4,575.5 3.2,581.7 -0.4,587.9 -7.6,587.9 "/>
<ellipse class="st1" cx="1810.4" cy="1019.5" rx="11.2" ry="11"/>
<polygon class="st1" points="1927.7,839.7 1906.8,843.7 1892.8,827.7 1899.8,807.8 1920.8,803.8 1934.8,819.8 "/>
<ellipse class="st1" cx="1913.3" cy="659.8" rx="4.5" ry="4.5"/>
<ellipse class="st1" cx="17.7" cy="687.7" rx="6.2" ry="6.1"/>
<polygon class="st1" points="1798.6,281.8 1820.5,288.9 1825.1,311.1 1808,326.2 1786.2,319.1 1781.5,296.9 "/>
<polygon class="st1" points="1871.7,225.3 1898.3,222.4 1914.2,243.6 1903.5,267.9 1876.9,270.9 1861,249.6 "/>
<polygon class="st1" points="1839.8,155 1806.6,163.8 1782.2,139.7 1791.1,106.9 1824.4,98.1 1848.7,122.1 "/>
<polygon class="st1" points="1867.9,436.4 1842.5,433.6 1832.2,410.5 1847.3,390.1 1872.8,392.9 1883.1,416 "/>
<polygon class="st1" points="1857.6,29.1 1891.3,14.1 1921.2,35.4 1917.6,71.7 1883.9,86.7 1853.9,65.4 "/>
<polygon class="st1" points="1795.8,485.4 1777.8,492.3 1762.8,480.2 1765.8,461.4 1783.9,454.6 1798.8,466.6 "/>
<ellipse class="st1" cx="1826.6" cy="81.5" rx="54.6" ry="53.9"/>
<ellipse class="st1" cx="1809" cy="362.9" rx="17.6" ry="17.4"/>
<ellipse class="st1" cx="1783.3" cy="250.7" rx="11.3" ry="11.1"/>
<circle class="st1" cx="1769" cy="27.5" r="9.1"/>
<polygon class="st1" points="1771.8,406.7 1776.3,399 1785.3,399 1789.8,406.7 1785.3,414.4 1776.3,414.4 "/>
<polygon class="st1" points="59.1,72.5 42.9,78.1 29.8,67 33,50.3 49.3,44.6 62.4,55.8 "/>
<polygon class="st1" points="1,141.1 -11.1,117.3 3.8,95 30.7,96.6 42.8,120.4 28,142.7 "/>
<polygon class="st1" points="93.6,232.6 51.9,244 21.1,214.1 31.9,172.8 73.5,161.3 104.4,191.2 "/>
<polygon class="st1" points="59.3,39.2 41.4,42.6 29.5,28.9 35.5,11.9 53.4,8.6 65.3,22.2 "/>
<polygon class="st1" points="20.5,1147.1 42.3,1154.2 47,1176.5 50.8,1197.5 29.1,1190.5 3.4,1162.2 "/>
<polygon class="st1" points="93.5,1090.7 120.1,1087.7 136.1,1108.9 125.4,1133.3 98.8,1136.2 82.9,1114.9 "/>
<polygon class="st1" points="61.7,1020.4 28.4,1029.2 4,1005 12.9,972.2 46.3,963.4 70.6,987.4 "/>
<polygon class="st1" points="188.1,58.4 162.7,55.7 152.4,32.5 167.5,12.1 192.9,14.9 203.2,38.1 "/>
<polygon class="st1" points="79.5,894.4 113.1,879.4 143.1,900.7 139.4,937 105.8,952 75.8,930.7 "/>
<polygon class="st1" points="116,107.4 97.9,114.3 82.9,102.2 85.9,83.4 104,76.6 119,88.6 "/>
<ellipse class="st1" cx="148.9" cy="1000.8" rx="17.3" ry="17.1"/>
<ellipse class="st1" cx="48.5" cy="946.8" rx="54.6" ry="53.9"/>
<ellipse class="st1" cx="129.1" cy="-15.1" rx="17.6" ry="17.4"/>
<ellipse class="st1" cx="5.1" cy="1116" rx="11.3" ry="11.1"/>
<polygon class="st1" points="91.9,28.7 96.4,21 105.4,21 109.9,28.7 105.4,36.4 96.4,36.4 "/>
</svg>
