<?xml version="1.0" encoding="utf-8"?>
<!-- Generator: Adobe Illustrator 21.0.0, SVG Export Plug-In . SVG Version: 6.00 Build 0)  -->
<svg version="1.1" id="Calque_1" xmlns="http://www.w3.org/2000/svg" xmlns:xlink="http://www.w3.org/1999/xlink" x="0px" y="0px"
	 viewBox="0 0 60 60" style="enable-background:new 0 0 60 60;" xml:space="preserve">
<style type="text/css">
	.st0{opacity:0.4;fill:#FF3000;}
	.st1{opacity:0.45;fill:#FFFFFF;}
</style>
<path class="st0" d="M2.3,12.9C2.9,11.6,4,9.2,6.6,7.4C8.8,5.9,11.7,4.9,18.1,5C24.2,5.1,31,5.2,39,8.6c2.8,1.2,19,8.2,19.9,19.1
	c0.3,3.3-0.9,6.1-1.8,8.2c-2.7,6.3-7.4,9.7-8.5,10.4C43.5,50,38.2,50.7,36,51c-2.1,0.3-7.8,0.9-14.2-1.3C9.9,45.7,5.2,34.9,3.7,31.7
	C2.5,29-1.2,20.7,2.3,12.9z"/>
<path class="st0" d="M31.7,49c13.7-1.5,18-24.4,16.7-28.6c-0.8-2.5-2.3-3.9-2.3-3.9c-0.9-0.8-1.7-1.2-2.3-1.5
	c-5-2.2-9.3-2.7-9.3-2.7c-4.7-0.5-8.5,0.1-10.4,0.5c-3,0.6-7,1.5-11.1,4.7c-2.5,2-4.6,3.6-5.4,6.4c-1.8,6.3,4.5,13.3,6.8,15.8
	C17.8,43.2,23.9,49.8,31.7,49z"/>
<path class="st0" d="M35.4,54.8C46.2,52,49.9,41.7,50.5,40.2c0.8-2.2,2.4-6.8,0.5-11.8c-1.7-4.3-5.1-6.6-8.2-8.5
	c-12.7-8-26.7-4.2-27.9-3.8c-4.5,1.3-7.9,2.3-9.7,5.4c-3.8,6.5,2.3,16.3,5.6,21.4c2.6,4.2,4.7,7.4,9,9.9
	C27,56.9,34.4,55.1,35.4,54.8z"/>
<path class="st1" d="M21.1,16.6c-0.7,0-2.8-0.1-5,1c-2.8,1.3-5.9,4.5-6,9c-0.1,3.6,1.9,6.8,4.5,8.5c1.9,1.2,3.9,1.5,4.5,1.5
	c2,0.2,3.6-0.3,4-0.5c0.9-0.3,1.5-0.7,2-1c0-0.2,0-0.3,0-0.5c-0.6,0.2-1.1,0.4-1.5,0.5c-0.9,0.3-1.4,0.4-2,0.5c-0.2,0-0.7,0.1-1.5,0
	c-1-0.1-3.7-0.3-6-2.5c-0.5-0.5-3-2.8-3-6.5c0-3.8,2.5-6.1,3-6.5c2.7-2.4,5.9-2.5,7-2.5c0.8,0,2,0.1,3.5,0.5c0,0.3,0,0.7,0,1
	c0,0.5,0,1,0,1.5c0.3,0,0.7,0,1,0c0-1,0-2,0-3C24.7,17.2,23.2,16.6,21.1,16.6z"/>
<path class="st1" d="M45.4,36v-6c0-0.2,0-0.5-0.1-0.9c0,0-0.1-0.2-0.2-0.4c-1.1-2-3.2-2.2-3.2-2.2c-0.3,0-1.5-0.2-2.5,0.5
	c-1.2,0.8-1.6,2.1-2,2c-0.2-0.1-0.2-0.4-0.5-1c-0.4-0.8-1.1-1.3-1.5-1.5c-1.2-0.5-2.3-0.2-3,0c-0.6,0.2-1.7,0.5-2.5,1.5
	c-0.2,0.2-0.4,0.5-0.5,0.7v-2.2h-3.5v1h2V36h-2v1.5h5V36h-1.5v-5.7c0.1-0.4,0.3-1.1,1-1.8c0.9-0.9,2.3-1.3,3.5-1
	c0.2,0,1.8,0.4,2,1.5c0,0.2,0,0.4,0,0.5c0,2.2,0,4.3,0,6.5c-0.7,0-1.3,0-2,0c0,0.5,0,1,0,1.5c1.8,0,3.7,0,5.5,0c0-0.5,0-1,0-1.5
	c-0.7,0-1.3,0-2,0v-5.5c0.2-0.4,0.5-0.9,1-1.5c0.3-0.3,1.8-1.9,3.5-1.5c0.9,0.2,1.4,0.9,1.5,1c0.4,0.6,0.5,1.3,0.5,1.5c0,2,0,4,0,6
	h-2v1.5h5.5V36H45.4z"/>
</svg>
